<?xml version="1.0" encoding="UTF-8"?>
<svg id="_레이어_2" data-name="레이어 2" xmlns="http://www.w3.org/2000/svg" viewBox="0 0 333.48 47.61">
  <defs>
    <style>
      .cls-1 {
        fill: #4d4d4d;
        stroke-width: 0px;
      }
    </style>
  </defs>
  <g id="layer">
    <g>
      <path class="cls-1" d="M271.8,47.35h-2.72v-7.18c-.05-.01-.1-.02-.16-.03-.95,2.38-1.89,4.77-2.83,7.13q-1.79.17-2.39-1.37c-.68-1.75-1.36-3.49-2.05-5.24-.07-.19-.18-.36-.4-.51v7.2h-2.68v-11.91h3.44c1.01,2.46,2.04,4.96,3.16,7.66.66-1.61,1.24-3,1.81-4.39.37-.91.75-1.81,1.1-2.72.16-.43.37-.65.88-.62.92.05,1.85.01,2.83.01v11.98Z"/>
      <path class="cls-1" d="M237.67,47.36h-2.74v-11.98c1.04,0,2.07-.03,3.09.03.2.01.45.34.55.57.87,2.05,1.71,4.12,2.56,6.18.1.25.21.49.39.9.27-.63.49-1.11.69-1.59.74-1.81,1.49-3.62,2.21-5.44.18-.46.41-.69.95-.65.89.05,1.79.01,2.74.01v11.98h-2.63v-7.07c-.06-.02-.12-.03-.19-.05-.09.16-.19.32-.26.49-.78,1.97-1.59,3.93-2.32,5.92-.23.64-.61.69-1.17.69-.58,0-.99-.04-1.24-.72-.78-2.14-1.64-4.25-2.64-6.36v7.1Z"/>
      <path class="cls-1" d="M55.81,47.35h-2.64v-7.17c-.07,0-.14-.02-.21-.03-.72,1.81-1.43,3.61-2.15,5.42-.09.23-.18.46-.27.68-.44,1.08-.82,1.31-1.94,1.04-.22-.05-.43-.37-.53-.61-.88-2.19-1.74-4.39-2.76-6.57v7.22h-2.67v-11.97c1.03,0,2.06-.03,3.08.03.19.01.45.34.54.57.88,2.08,1.72,4.17,2.58,6.26.09.22.2.44.37.81.29-.67.52-1.2.74-1.73.72-1.76,1.46-3.52,2.15-5.29.18-.46.4-.69.94-.66.89.05,1.79.01,2.75.01v11.98Z"/>
      <path class="cls-1" d="M145.94,42.25v-6.82h2.75v11.97c-.69,0-1.38.05-2.04-.03-.26-.03-.54-.32-.71-.56-1.33-1.89-2.64-3.8-3.96-5.7-.14-.2-.29-.38-.55-.73v6.96h-2.79v-11.96c.69,0,1.37-.05,2.04.03.25.03.53.31.7.55,1.34,1.92,2.65,3.86,3.97,5.79.13.2.29.38.43.57.05-.02.1-.04.16-.06Z"/>
      <path class="cls-1" d="M306.4,40.57v6.78h-2.78v-11.98c.73,0,1.46-.05,2.17.03.23.02.47.33.62.56,1.46,2.1,2.89,4.21,4.49,6.54v-7.09h2.81v11.98c-.71,0-1.42.05-2.1-.03-.23-.02-.47-.32-.63-.55-1.31-1.87-2.61-3.75-3.91-5.63-.15-.22-.31-.44-.47-.65-.07.01-.13.03-.2.04Z"/>
      <path class="cls-1" d="M32.32,41.44c.02,3.14-1.48,5.28-4.16,5.96-3.71.93-7-1.49-7.14-5.31-.03-.94,0-1.93.24-2.83.79-2.99,3.23-4.2,5.77-4.01,3.08.22,5.07,2.27,5.28,5.22.02.33,0,.65,0,.98ZM29.48,41.41c0-.71-.11-1.4-.35-2.05-.39-1.08-1.25-1.63-2.38-1.65-1.13-.03-2.01.47-2.47,1.53-.61,1.44-.62,2.91.01,4.35.47,1.06,1.34,1.53,2.48,1.5,1.15-.03,1.97-.6,2.37-1.67.23-.63.34-1.3.34-2Z"/>
      <path class="cls-1" d="M293.44,41.4c0,2.99-1.47,5.28-3.94,5.92-4.43,1.15-7.91-1.72-7.44-6.64.29-3.07,1.95-4.91,4.44-5.32,4.05-.66,6.94,1.85,6.94,6.04ZM290.48,40.46c-.16-1.6-1.18-2.66-2.62-2.76-1.41-.09-2.53.8-2.81,2.41-.15.84-.15,1.75,0,2.59.28,1.61,1.38,2.46,2.83,2.38,1.41-.08,2.42-1.1,2.6-2.67.06-.85.09-1.08,0-1.96Z"/>
      <path class="cls-1" d="M224.62,41.43c.02,3.18-1.5,5.34-4.2,5.99-3.7.89-6.97-1.55-7.1-5.36-.03-.99.05-2.02.31-2.97.75-2.83,3.3-4.07,5.79-3.84,3.02.29,4.97,2.28,5.18,5.11.03.35,0,.71,0,1.06ZM221.8,41.41c0-.73-.13-1.39-.36-2.05-.39-1.08-1.25-1.64-2.38-1.66-1.12-.02-2,.45-2.47,1.53-.62,1.44-.62,2.9,0,4.34.45,1.03,1.3,1.51,2.4,1.5,1.14,0,2.01-.51,2.42-1.59.25-.65.39-1.36.39-2.08Z"/>
      <path class="cls-1" d="M169.79,39.3c-.84,0-1.68.02-2.51-.02-.15,0-.34-.21-.44-.36-1.04-1.67-3.49-1.66-4.45.09-.85,1.55-.84,3.21-.01,4.78.74,1.4,2.94,1.77,4.11.72.38-.35.8-.74.98-1.57h-2.59v-1.99h4.99c.7,4.27-1.78,6.84-5.62,6.6-3.53-.23-5.6-2.91-5.29-6.77.25-3.19,2.05-5.19,5.17-5.52,3-.32,5.46,1.59,5.66,4.04Z"/>
      <path class="cls-1" d="M92.65,35.41h2.87c0,.79,0,1.55,0,2.3-.02,1.99,0,3.98-.07,5.96-.06,1.52-.87,2.65-2.22,3.28-1.9.89-3.85.89-5.73-.09-1.19-.62-1.98-1.65-2.02-2.98-.09-2.8-.03-5.6-.03-8.45h2.78c0,.37,0,.74,0,1.11,0,2.12-.01,4.25,0,6.37,0,1.31.93,2.21,2.22,2.22,1.28,0,2.19-.91,2.19-2.22,0-2.47,0-4.95,0-7.5Z"/>
      <path class="cls-1" d="M333.3,38.94h-2.62c-.56-1.22-1.72-1.74-2.9-1.19-.34.16-.72.6-.74.93-.02.33.31.86.62,1,.76.34,1.61.47,2.41.73.62.2,1.24.41,1.81.71,1.13.62,1.65,1.65,1.62,2.91-.04,1.32-.65,2.38-1.88,2.93-1.9.85-3.86.85-5.77.01-1.41-.62-2.11-1.91-2-3.47h2.5c.7,1.48,1.43,1.9,2.96,1.64.61-.1,1.17-.35,1.27-1.08.1-.72-.39-1.05-.96-1.22-.77-.24-1.57-.41-2.36-.62-1.26-.35-2.45-.82-2.99-2.15-.65-1.62.09-3.42,1.77-4.24,1.65-.81,3.36-.86,5.05-.15,1.41.58,2.15,1.68,2.22,3.25Z"/>
      <path class="cls-1" d="M170.68,11.43c-.13.03-.18.04-.24.05-1.2.22-1.97-.19-2.64-1.28-1.22-1.99-2.63-3.86-4.11-5.74v6.98h-2.33V.18c.58,0,1.17-.05,1.75.02.24.03.49.3.64.52,1.49,2.14,2.97,4.3,4.62,6.43V.21h2.3v11.22Z"/>
      <path class="cls-1" d="M66.3,35.5c1.99,0,3.92-.14,5.84.04,2.15.19,3.4,1.92,3.34,4.2-.06,2.09-1.49,3.65-3.6,3.83-.89.07-1.79.01-2.81.01v3.77h-2.77v-11.85ZM69.08,41.42c1.15-.09,2.38.35,3.17-.82.46-.67.47-1.48-.02-2.14-.82-1.11-2.03-.72-3.15-.78v3.74Z"/>
      <path class="cls-1" d="M8.17,43.24h2.74c-.04,1.22-.57,2.17-1.41,2.92-1.78,1.59-3.87,1.78-6.03,1.01-2.12-.76-3.11-2.45-3.38-4.6-.2-1.56-.07-3.1.67-4.53.97-1.87,3.19-3.04,5.32-2.81,2.6.28,4.12,1.43,4.72,3.58.07.25.09.52.14.85h-2.75c-.64-1.48-1.48-2.09-2.71-1.95-1.34.15-2.23.97-2.47,2.53-.13.87-.1,1.8.06,2.66.26,1.37,1.19,2.1,2.48,2.19,1.25.08,2.01-.45,2.61-1.85Z"/>
      <path class="cls-1" d="M200.48,43.24h2.76c-.11,1.33-.7,2.37-1.69,3.14-1.85,1.43-3.93,1.56-6.02.69-2.03-.85-2.95-2.57-3.16-4.69-.18-1.78,0-3.5,1.1-4.98,1.47-1.96,3.52-2.45,5.82-2.03,1.96.36,3.28,1.5,3.82,3.47.07.25.08.52.13.83h-2.75c-.28-.87-.72-1.63-1.75-1.87-1.4-.32-2.66.28-3.19,1.61-.49,1.23-.5,2.5-.1,3.76.41,1.25,1.29,1.9,2.54,1.92,1.23.02,1.91-.48,2.49-1.85Z"/>
      <path class="cls-1" d="M156.42,3.36c-.64,0-1.18.04-1.72-.02-.23-.03-.52-.22-.64-.42-.61-1-2.44-1.29-3.3-.49-.59.55-.54,1.38.2,1.78.52.28,1.12.39,1.68.59.84.3,1.75.48,2.5.94,2.01,1.21,1.93,4.15-.14,5.24-1.79.94-3.68.9-5.51.07-1.25-.57-1.84-1.73-1.73-3.13.59,0,1.18-.03,1.77.02.17.02.44.24.47.41.25,1.35,2.65,1.8,3.8.78.63-.56.55-1.44-.24-1.82-.62-.31-1.33-.45-2-.67-.69-.23-1.43-.38-2.07-.72-1.86-1-2.07-3.5-.45-4.87,1.57-1.33,4.56-1.38,6.18-.1.75.59,1.12,1.37,1.18,2.43Z"/>
      <path class="cls-1" d="M182.87.22h2.34c0,1.5,0,2.96,0,4.42,0,.93,0,1.85,0,2.78-.02,2.08-1.2,3.65-3.24,4-1.04.18-2.18.12-3.22-.1-1.81-.4-2.87-1.91-2.88-3.77,0-2.42,0-4.84,0-7.32h2.31c0,.57,0,1.13,0,1.7,0,1.74-.01,3.49,0,5.23.01,1.48.91,2.37,2.32,2.37,1.42,0,2.34-.88,2.36-2.35.02-2.02,0-4.03,0-6.05,0-.29,0-.58,0-.92Z"/>
      <path class="cls-1" d="M109.1,37.69h-3.66v-2.25h10.03v2.24h-3.6v9.67h-2.77v-9.65Z"/>
      <path class="cls-1" d="M125.39,35.41h2.84v12.01h-2.84v-12.01Z"/>
    </g>
  </g>
</svg>