<?xml version="1.0" encoding="UTF-8"?>
<svg id="_레이어_2" data-name="레이어 2" xmlns="http://www.w3.org/2000/svg" viewBox="0 0 400.3 71.77">
  <defs>
    <style>
      .cls-1 {
        opacity: .69;
      }

      .cls-2, .cls-3, .cls-4, .cls-5, .cls-6 {
        stroke-width: 0px;
      }

      .cls-3 {
        fill: none;
      }

      .cls-7 {
        opacity: .8;
      }

      .cls-4 {
        fill: #fff;
      }

      .cls-5 {
        fill: #0f3382;
      }

      .cls-6 {
        opacity: .13;
      }
    </style>
  </defs>
  <g id="layer">
    <rect class="cls-6" x="99.2" y="2.4" width="1.43" height="66.97"/>
    <g class="cls-1">
      <path class="cls-2" d="M120.88,17.36c-1.25,0-2.03.62-2.03,1.48,0,.96,1.05,1.32,1.85,1.51l.98.26c1.3.31,2.91,1.01,2.93,2.83-.01,1.69-1.37,2.94-3.77,2.94-2.27,0-3.7-1.12-3.8-2.95h1.54c.1,1.09,1.06,1.62,2.25,1.62,1.29,0,2.23-.65,2.24-1.63-.01-.87-.84-1.23-1.92-1.51l-1.2-.32c-1.62-.44-2.65-1.26-2.65-2.66,0-1.73,1.57-2.88,3.61-2.88s3.5,1.16,3.54,2.78h-1.5c-.1-.93-.92-1.47-2.09-1.47Z"/>
      <path class="cls-2" d="M125.78,22.5c0-2.31,1.4-3.91,3.52-3.91,1.74,0,3.38,1.07,3.38,3.78v.53h-5.41c.04,1.43.89,2.24,2.14,2.24.85,0,1.4-.36,1.65-.82h1.51c-.34,1.22-1.51,2.04-3.18,2.04-2.24,0-3.61-1.52-3.61-3.87ZM131.21,21.79c0-1.15-.74-1.98-1.89-1.98s-1.97.91-2.03,1.98h3.92Z"/>
      <path class="cls-2" d="M133.82,22.49c0-2.34,1.4-3.89,3.56-3.89s3.54,1.55,3.54,3.89-1.4,3.88-3.54,3.88-3.56-1.55-3.56-3.88ZM139.41,22.49c0-1.44-.66-2.67-2.03-2.67s-2.06,1.23-2.06,2.67.66,2.65,2.06,2.65,2.03-1.21,2.03-2.65Z"/>
      <path class="cls-2" d="M147.21,18.69h1.48v7.52h-1.46v-1.3h-.08c-.35.8-1.13,1.4-2.27,1.4-1.47,0-2.51-.97-2.51-2.84v-4.78h1.5v4.6c0,1.03.63,1.68,1.54,1.68.83,0,1.79-.6,1.79-1.88v-4.39Z"/>
      <path class="cls-2" d="M152.01,26.21h-1.5v-10.03h1.5v10.03Z"/>
      <path class="cls-2" d="M165.63,26.21h-1.41l-5.14-7.33h-.08v7.33h-1.54v-10.03h1.43l5.14,7.34h.1v-7.34h1.51v10.03Z"/>
      <path class="cls-2" d="M170.06,21.84c.5-.03,1.65-.1,2-.11v-.6c-.01-.84-.53-1.34-1.55-1.34-.88,0-1.41.4-1.57.96h-1.48c.14-1.25,1.32-2.15,3.11-2.15,1.2,0,2.98.44,2.98,2.62v5h-1.46v-1.03h-.06c-.29.57-.99,1.19-2.26,1.19-1.44,0-2.56-.82-2.56-2.29,0-1.72,1.47-2.16,2.84-2.26ZM170.12,25.2c1.22,0,1.95-.8,1.95-1.7v-.69c-.35.03-1.44.1-1.79.12-.98.07-1.6.43-1.6,1.18s.6,1.09,1.44,1.09Z"/>
      <path class="cls-2" d="M178.9,19.87h-1.55v4.13c0,.85.43,1,.91,1.01.21,0,.55-.03.76-.04v1.29c-.21.03-.53.06-.94.06-1.18,0-2.23-.64-2.21-2.01v-4.43h-1.12v-1.18h1.12v-1.8h1.48v1.8h1.55v1.18Z"/>
      <path class="cls-2" d="M180.16,16.65c0-.48.43-.87.95-.87s.94.39.94.87-.43.87-.94.87-.95-.39-.95-.87ZM180.36,18.69h1.5v7.52h-1.5v-7.52Z"/>
      <path class="cls-2" d="M183.34,22.49c0-2.34,1.4-3.89,3.56-3.89s3.54,1.55,3.54,3.89-1.4,3.88-3.54,3.88-3.56-1.55-3.56-3.88ZM188.92,22.49c0-1.44-.66-2.67-2.03-2.67s-2.06,1.23-2.06,2.67.66,2.65,2.06,2.65,2.03-1.21,2.03-2.65Z"/>
      <path class="cls-2" d="M193.4,26.21h-1.5v-7.52h1.44v1.23h.08c.36-.8,1.11-1.33,2.24-1.33,1.57,0,2.59.97,2.59,2.84v4.78h-1.48v-4.6c0-1.09-.6-1.75-1.61-1.75s-1.77.68-1.77,1.88v4.46Z"/>
      <path class="cls-2" d="M202.56,21.84c.5-.03,1.65-.1,2-.11v-.6c-.01-.84-.53-1.34-1.55-1.34-.88,0-1.41.4-1.57.96h-1.48c.14-1.25,1.32-2.15,3.11-2.15,1.2,0,2.98.44,2.98,2.62v5h-1.46v-1.03h-.06c-.29.57-.99,1.19-2.26,1.19-1.44,0-2.56-.82-2.56-2.29,0-1.72,1.47-2.16,2.84-2.26ZM202.62,25.2c1.22,0,1.95-.8,1.95-1.7v-.69c-.35.03-1.44.1-1.79.12-.98.07-1.6.43-1.6,1.18s.6,1.09,1.44,1.09Z"/>
      <path class="cls-2" d="M209.35,26.21h-1.5v-10.03h1.5v10.03Z"/>
      <path class="cls-2" d="M222.85,16.18v6.6c0,2.11-1.6,3.6-4.02,3.6s-4.03-1.5-4.03-3.6v-6.6h1.54v6.47c0,1.36.95,2.34,2.49,2.34s2.48-.98,2.48-2.34v-6.47h1.54Z"/>
      <path class="cls-2" d="M226.28,26.21h-1.5v-7.52h1.44v1.23h.08c.36-.8,1.11-1.33,2.24-1.33,1.57,0,2.59.97,2.59,2.84v4.78h-1.48v-4.6c0-1.09-.6-1.75-1.61-1.75s-1.77.68-1.77,1.88v4.46Z"/>
      <path class="cls-2" d="M232.76,16.65c0-.48.43-.87.95-.87s.94.39.94.87-.43.87-.94.87-.95-.39-.95-.87ZM232.95,18.69h1.5v7.52h-1.5v-7.52Z"/>
      <path class="cls-2" d="M240.04,26.21h-1.61l-2.76-7.52h1.61l1.92,5.78h.07l1.92-5.78h1.61l-2.76,7.52Z"/>
      <path class="cls-2" d="M243.4,22.5c0-2.31,1.4-3.91,3.52-3.91,1.74,0,3.38,1.07,3.38,3.78v.53h-5.41c.04,1.43.89,2.24,2.14,2.24.85,0,1.4-.36,1.65-.82h1.51c-.34,1.22-1.51,2.04-3.18,2.04-2.24,0-3.61-1.52-3.61-3.87ZM248.83,21.79c0-1.15-.74-1.98-1.89-1.98s-1.97.91-2.03,1.98h3.92Z"/>
      <path class="cls-2" d="M251.77,18.69h1.44v1.19h.08c.28-.8,1.04-1.3,1.93-1.3.18,0,.48.01.63.03v1.41c-.13-.03-.48-.08-.78-.08-1.04,0-1.81.71-1.81,1.69v4.59h-1.5v-7.52Z"/>
      <path class="cls-2" d="M259.81,19.76c-.85,0-1.47.44-1.46,1.01-.01.44.35.76,1.19.96l1.21.28c1.4.3,2.07.97,2.09,2.04-.01,1.36-1.16,2.33-3.11,2.33-1.82,0-2.91-.8-3.1-2.2h1.53c.13.68.66,1.01,1.56,1.01.97,0,1.58-.39,1.6-1.03-.01-.48-.38-.8-1.18-.98l-1.19-.25c-1.37-.31-2.09-1.03-2.09-2.06,0-1.34,1.18-2.26,2.94-2.26s2.75.86,2.9,2.15h-1.44c-.14-.6-.62-.98-1.44-.98Z"/>
      <path class="cls-2" d="M264.09,16.65c0-.48.43-.87.95-.87s.94.39.94.87-.43.87-.94.87-.95-.39-.95-.87ZM264.28,18.69h1.5v7.52h-1.5v-7.52Z"/>
      <path class="cls-2" d="M271.16,19.87h-1.55v4.13c0,.85.43,1,.91,1.01.21,0,.55-.03.76-.04v1.29c-.21.03-.53.06-.94.06-1.18,0-2.23-.64-2.21-2.01v-4.43h-1.12v-1.18h1.12v-1.8h1.48v1.8h1.55v1.18Z"/>
      <path class="cls-2" d="M272.73,29v-1.23c.17.01.46.03.67.03.46,0,.85-.04,1.2-.98l.18-.5-2.79-7.62h1.6l1.92,5.83h.08l1.92-5.83h1.61l-3.14,8.52c-.43,1.19-1.22,1.83-2.47,1.83-.31,0-.6-.01-.8-.04Z"/>
      <path class="cls-2" d="M117.45,53.01v-10.03h3.39c2.98,0,4.78,1.88,4.78,5s-1.79,5.03-4.88,5.03h-3.29ZM120.65,51.68c2.3,0,3.43-1.33,3.43-3.7s-1.13-3.67-3.35-3.67h-1.75v7.37h1.67Z"/>
      <path class="cls-2" d="M126.88,49.29c0-2.31,1.4-3.91,3.52-3.91,1.74,0,3.38,1.07,3.38,3.78v.53h-5.41c.04,1.43.89,2.24,2.14,2.24.85,0,1.4-.36,1.65-.82h1.51c-.34,1.22-1.51,2.04-3.18,2.04-2.24,0-3.61-1.52-3.61-3.87ZM132.3,48.59c0-1.15-.74-1.98-1.89-1.98s-1.98.91-2.03,1.98h3.92Z"/>
      <path class="cls-2" d="M135.24,45.48h1.46v1.22h.13c.27-.47.78-1.32,2.19-1.32,1.83,0,3.19,1.43,3.19,3.88s-1.33,3.89-3.18,3.89c-1.39,0-1.93-.83-2.2-1.33h-.08v4h-1.5v-10.35ZM138.69,51.9c1.32,0,2-1.15,2-2.66s-.67-2.59-2-2.59-1.98,1.03-1.98,2.59.7,2.66,1.98,2.66Z"/>
      <path class="cls-2" d="M147.24,46.66h-1.55v4.13c0,.85.43,1,.91,1.01.21,0,.55-.03.76-.04v1.29c-.21.03-.53.06-.94.06-1.18,0-2.23-.64-2.21-2.01v-4.43h-1.12v-1.18h1.12v-1.8h1.48v1.8h1.55v1.18Z"/>
      <path class="cls-2" d="M148.68,52.12c-.01-.54.45-.98.99-.98s.99.44.99.98-.46.98-.99.98-1.01-.44-.99-.98Z"/>
      <path class="cls-2" d="M155.47,49.28c0-2.34,1.4-3.89,3.56-3.89s3.54,1.55,3.54,3.89-1.4,3.88-3.54,3.88-3.56-1.55-3.56-3.88ZM161.06,49.28c0-1.44-.66-2.67-2.03-2.67s-2.06,1.23-2.06,2.67.66,2.65,2.06,2.65,2.03-1.21,2.03-2.65Z"/>
      <path class="cls-2" d="M167.66,46.66h-1.64v6.35h-1.5v-6.35h-1.18v-1.18h1.18v-.87c0-1.34.87-2.11,2.27-2.11.36,0,.73.04,1.02.1v1.23c-.28-.04-.49-.06-.63-.06-.8,0-1.16.32-1.16,1.05v.65h1.64v1.18Z"/>
      <path class="cls-2" d="M176.88,44.24c-1.75,0-3.05,1.33-3.05,3.75s1.32,3.75,3.05,3.75c1.27,0,2.35-.71,2.62-1.98h1.55c-.32,2-1.96,3.38-4.19,3.38-2.65,0-4.57-1.95-4.57-5.15s1.93-5.15,4.57-5.15c2.14,0,3.84,1.25,4.19,3.41h-1.55c-.25-1.29-1.33-2.01-2.62-2.01Z"/>
      <path class="cls-2" d="M182.25,49.28c0-2.34,1.4-3.89,3.56-3.89s3.54,1.55,3.54,3.89-1.4,3.88-3.54,3.88-3.56-1.55-3.56-3.88ZM187.84,49.28c0-1.44-.66-2.67-2.03-2.67s-2.06,1.23-2.06,2.67.66,2.65,2.06,2.65,2.03-1.21,2.03-2.65Z"/>
      <path class="cls-2" d="M190.81,45.48h1.44v1.23h.08c.32-.85,1.06-1.33,2.07-1.33s1.72.5,2.05,1.33h.08c.36-.82,1.18-1.33,2.28-1.33,1.37,0,2.35.86,2.35,2.58v5.04h-1.5v-4.9c0-1.01-.64-1.44-1.43-1.44-.97,0-1.51.65-1.51,1.55v4.79h-1.48v-4.99c0-.82-.57-1.36-1.39-1.36s-1.56.69-1.56,1.7v4.64h-1.5v-7.52Z"/>
      <path class="cls-2" d="M202.97,45.48h1.46v1.22h.13c.27-.47.78-1.32,2.19-1.32,1.83,0,3.19,1.43,3.19,3.88s-1.33,3.89-3.18,3.89c-1.39,0-1.93-.83-2.2-1.33h-.08v4h-1.5v-10.35ZM206.42,51.9c1.32,0,2-1.15,2-2.66s-.67-2.59-2-2.59-1.98,1.03-1.98,2.59.7,2.66,1.98,2.66Z"/>
      <path class="cls-2" d="M216.24,45.48h1.48v7.52h-1.46v-1.3h-.08c-.35.8-1.13,1.4-2.27,1.4-1.47,0-2.51-.97-2.51-2.84v-4.78h1.5v4.6c0,1.03.63,1.68,1.54,1.68.83,0,1.79-.6,1.79-1.88v-4.39Z"/>
      <path class="cls-2" d="M223.1,46.66h-1.55v4.13c0,.85.43,1,.91,1.01.21,0,.55-.03.76-.04v1.29c-.21.03-.53.06-.94.06-1.18,0-2.23-.64-2.21-2.01v-4.43h-1.12v-1.18h1.12v-1.8h1.48v1.8h1.55v1.18Z"/>
      <path class="cls-2" d="M224.14,49.29c0-2.31,1.4-3.91,3.52-3.91,1.74,0,3.38,1.07,3.38,3.78v.53h-5.41c.04,1.43.89,2.24,2.14,2.24.85,0,1.4-.36,1.65-.82h1.51c-.34,1.22-1.51,2.04-3.18,2.04-2.24,0-3.61-1.52-3.61-3.87ZM229.56,48.59c0-1.15-.74-1.98-1.89-1.98s-1.97.91-2.03,1.98h3.92Z"/>
      <path class="cls-2" d="M232.51,45.48h1.44v1.19h.08c.28-.8,1.04-1.3,1.93-1.3.18,0,.48.01.63.03v1.41c-.13-.03-.48-.08-.78-.08-1.04,0-1.81.71-1.81,1.69v4.59h-1.5v-7.52Z"/>
      <path class="cls-2" d="M244.77,44.15c-1.25,0-2.03.62-2.03,1.48,0,.96,1.05,1.32,1.85,1.51l.98.26c1.3.31,2.91,1.01,2.93,2.83-.01,1.69-1.37,2.94-3.77,2.94-2.27,0-3.7-1.12-3.8-2.95h1.54c.1,1.09,1.06,1.62,2.25,1.62,1.29,0,2.23-.65,2.24-1.63-.01-.87-.84-1.23-1.92-1.51l-1.2-.32c-1.62-.44-2.65-1.26-2.65-2.66,0-1.73,1.57-2.88,3.61-2.88s3.5,1.16,3.54,2.78h-1.5c-.1-.93-.92-1.47-2.09-1.47Z"/>
      <path class="cls-2" d="M249.67,49.28c0-2.3,1.39-3.89,3.53-3.89,1.74,0,3,1.01,3.15,2.54h-1.46c-.15-.71-.73-1.3-1.67-1.3-1.23,0-2.06,1.01-2.06,2.62s.81,2.66,2.06,2.66c.84,0,1.48-.46,1.67-1.27h1.46c-.17,1.45-1.33,2.54-3.12,2.54-2.21,0-3.56-1.62-3.56-3.88Z"/>
      <path class="cls-2" d="M257.57,43.45c0-.48.43-.87.95-.87s.94.39.94.87-.43.87-.94.87-.95-.39-.95-.87ZM257.76,45.48h1.5v7.52h-1.5v-7.52Z"/>
      <path class="cls-2" d="M260.74,49.29c0-2.31,1.4-3.91,3.52-3.91,1.74,0,3.38,1.07,3.38,3.78v.53h-5.41c.04,1.43.89,2.24,2.14,2.24.85,0,1.4-.36,1.65-.82h1.51c-.34,1.22-1.51,2.04-3.18,2.04-2.24,0-3.61-1.52-3.61-3.87ZM266.16,48.59c0-1.15-.74-1.98-1.89-1.98s-1.98.91-2.03,1.98h3.92Z"/>
      <path class="cls-2" d="M270.61,53.01h-1.5v-7.52h1.44v1.23h.08c.36-.8,1.11-1.33,2.24-1.33,1.57,0,2.59.97,2.59,2.84v4.78h-1.48v-4.6c0-1.09-.6-1.75-1.61-1.75s-1.77.68-1.77,1.88v4.46Z"/>
      <path class="cls-2" d="M276.94,49.28c0-2.3,1.39-3.89,3.53-3.89,1.74,0,3,1.01,3.15,2.54h-1.46c-.15-.71-.73-1.3-1.67-1.3-1.23,0-2.06,1.01-2.06,2.62s.81,2.66,2.06,2.66c.84,0,1.48-.46,1.67-1.27h1.46c-.17,1.45-1.33,2.54-3.12,2.54-2.21,0-3.56-1.62-3.56-3.88Z"/>
      <path class="cls-2" d="M284.7,49.29c0-2.31,1.4-3.91,3.52-3.91,1.74,0,3.38,1.07,3.38,3.78v.53h-5.41c.04,1.43.89,2.24,2.14,2.24.85,0,1.4-.36,1.65-.82h1.51c-.34,1.22-1.51,2.04-3.18,2.04-2.24,0-3.61-1.52-3.61-3.87ZM290.12,48.59c0-1.15-.74-1.98-1.89-1.98s-1.98.91-2.03,1.98h3.92Z"/>
      <path class="cls-2" d="M299.06,48.63c.5-.03,1.65-.1,2-.11v-.6c-.01-.84-.53-1.34-1.55-1.34-.88,0-1.41.4-1.57.96h-1.48c.14-1.25,1.32-2.15,3.11-2.15,1.2,0,2.98.44,2.98,2.62v5h-1.46v-1.03h-.06c-.29.57-.99,1.19-2.26,1.19-1.44,0-2.56-.82-2.56-2.29,0-1.72,1.47-2.16,2.84-2.26ZM299.11,52c1.22,0,1.95-.8,1.95-1.7v-.69c-.35.03-1.44.1-1.79.12-.98.07-1.6.43-1.6,1.18s.6,1.09,1.44,1.09Z"/>
      <path class="cls-2" d="M305.84,53.01h-1.5v-7.52h1.44v1.23h.08c.36-.8,1.11-1.33,2.24-1.33,1.57,0,2.59.97,2.59,2.84v4.78h-1.48v-4.6c0-1.09-.6-1.75-1.61-1.75s-1.77.68-1.77,1.88v4.46Z"/>
      <path class="cls-2" d="M312.18,49.27c0-2.45,1.36-3.88,3.19-3.88,1.41,0,1.93.85,2.2,1.32h.07v-3.73h1.5v10.03h-1.46v-1.18h-.11c-.28.5-.83,1.33-2.21,1.33-1.83,0-3.18-1.47-3.18-3.89ZM317.68,49.24c0-1.57-.7-2.59-1.99-2.59s-1.99,1.11-1.99,2.59.69,2.66,1.99,2.66,1.99-1.08,1.99-2.66Z"/>
      <path class="cls-2" d="M324.7,42.98h6.36v1.32h-4.82v3.03h4.48v1.3h-4.48v3.06h4.87v1.32h-6.42v-10.03Z"/>
      <path class="cls-2" d="M334.32,53.01h-1.5v-7.52h1.44v1.23h.08c.36-.8,1.11-1.33,2.24-1.33,1.57,0,2.59.97,2.59,2.84v4.78h-1.48v-4.6c0-1.09-.6-1.75-1.61-1.75s-1.77.68-1.77,1.88v4.46Z"/>
      <path class="cls-2" d="M340.86,53.74h1.53c.14.71.81,1.05,1.81,1.05,1.19,0,1.95-.5,1.95-1.68v-1.48h-.1c-.27.48-.81,1.26-2.21,1.26-1.79,0-3.18-1.33-3.18-3.73s1.36-3.78,3.19-3.78c1.41,0,1.93.85,2.21,1.32h.1v-1.22h1.46v7.69c0,1.93-1.47,2.81-3.43,2.81s-3.18-.85-3.32-2.24ZM346.16,49.2c0-1.52-.7-2.55-1.99-2.55s-1.99,1.11-1.99,2.55.69,2.48,1.99,2.48,1.99-.93,1.99-2.48Z"/>
      <path class="cls-2" d="M349.23,43.45c0-.48.43-.87.95-.87s.94.39.94.87-.43.87-.94.87-.95-.39-.95-.87ZM349.43,45.48h1.5v7.52h-1.5v-7.52Z"/>
      <path class="cls-2" d="M354.24,53.01h-1.5v-7.52h1.44v1.23h.08c.36-.8,1.11-1.33,2.24-1.33,1.57,0,2.59.97,2.59,2.84v4.78h-1.48v-4.6c0-1.09-.6-1.75-1.61-1.75s-1.77.68-1.77,1.88v4.46Z"/>
      <path class="cls-2" d="M360.58,49.29c0-2.31,1.4-3.91,3.52-3.91,1.74,0,3.38,1.07,3.38,3.78v.53h-5.41c.04,1.43.89,2.24,2.14,2.24.85,0,1.4-.36,1.65-.82h1.51c-.34,1.22-1.51,2.04-3.18,2.04-2.24,0-3.61-1.52-3.61-3.87ZM366,48.59c0-1.15-.74-1.98-1.89-1.98s-1.98.91-2.03,1.98h3.92Z"/>
      <path class="cls-2" d="M368.61,49.29c0-2.31,1.4-3.91,3.52-3.91,1.74,0,3.38,1.07,3.38,3.78v.53h-5.41c.04,1.43.89,2.24,2.14,2.24.85,0,1.4-.36,1.65-.82h1.51c-.34,1.22-1.51,2.04-3.18,2.04-2.24,0-3.61-1.52-3.61-3.87ZM374.03,48.59c0-1.15-.74-1.98-1.89-1.98s-1.97.91-2.03,1.98h3.92Z"/>
      <path class="cls-2" d="M376.98,45.48h1.44v1.19h.08c.28-.8,1.04-1.3,1.93-1.3.18,0,.48.01.63.03v1.41c-.13-.03-.48-.08-.78-.08-1.04,0-1.81.71-1.81,1.69v4.59h-1.5v-7.52Z"/>
      <path class="cls-2" d="M381.99,43.45c0-.48.43-.87.95-.87s.94.39.94.87-.43.87-.94.87-.95-.39-.95-.87ZM382.18,45.48h1.5v7.52h-1.5v-7.52Z"/>
      <path class="cls-2" d="M387,53.01h-1.5v-7.52h1.44v1.23h.08c.36-.8,1.11-1.33,2.24-1.33,1.57,0,2.59.97,2.59,2.84v4.78h-1.48v-4.6c0-1.09-.6-1.75-1.61-1.75s-1.77.68-1.77,1.88v4.46Z"/>
      <path class="cls-2" d="M393.54,53.74h1.53c.14.71.81,1.05,1.81,1.05,1.19,0,1.95-.5,1.95-1.68v-1.48h-.1c-.27.48-.81,1.26-2.21,1.26-1.79,0-3.18-1.33-3.18-3.73s1.36-3.78,3.19-3.78c1.41,0,1.93.85,2.21,1.32h.1v-1.22h1.46v7.69c0,1.93-1.47,2.81-3.43,2.81s-3.18-.85-3.32-2.24ZM398.84,49.2c0-1.52-.7-2.55-1.99-2.55s-1.99,1.11-1.99,2.55.69,2.48,1.99,2.48,1.99-.93,1.99-2.48Z"/>
    </g>
    <g class="cls-7">
      <path class="cls-3" d="M37.74,48.65s0,.05,0,.07c0-.02-.01-.05,0-.07Z"/>
      <path class="cls-3" d="M39.07,52.05c-.18,0-.36,0-.53,0,.18,0,.36,0,.53,0,.05,0,.09,0,.14,0,0,0,0,0,0,0,0,0,0,0,0,0-.05,0-.09,0-.14,0Z"/>
      <path class="cls-3" d="M39.32,51.8h0l-.15-.72h0l-.32-1.5s-.04.05-.09.02c-.02-.19-.12-.81-.12-.81-.03-.2-.4-2.49-.4-2.52-.02-.09-.04-.11-.13-.12-.01,0-.03,0-.04,0-.41,0-.83,0-1.24,0-.04,0-.07.02-.12.03-.07.72-.13,1.44-.2,2.17-.11,1.19-.22,2.37-.33,3.56l.07.06c.12.03.25.02.37.02.13,0,.26,0,.39,0,.12,0,.25.01.38-.02,0-.05.01-.1.01-.14l.04-.55c.03-.77.03-.61.03-.77,0-.01,0,0,0,0,0,0,0-.01,0,0h0c0-.2,0-.4.01-.59l.04-.98s.03-.03.04-.04c0,.02-.02.03-.04.04l.06-1.12s.05-.08.07.13c0,.2.08.67.08.67h0l.02.17h0c.03.19.06.38.09.57h0s.07.34.07.34h0l.14.67s-.02.04-.02.05h0s.01-.03.02-.05l.07.33h0,0c.03.16.06.31.09.47l.02.08s.01.07.02.1c-.01.02,0,.04.01.06v-.06s0,.06,0,.06c0,.01,0,.03,0,.04,0,.02.02.05.02.07,0,.02,0,.02-.01.03,0-.01,0-.02.01-.03l.02.13s0,.07.01.11l.02.12c0,.06.01.08.06.13.01.06.06.06.11.06-.05,0-.09,0-.11-.06h.85s0,0,0,0h0s.06-.05.07-.08c0,.03-.02.06-.07.08l.05-.18Z"/>
      <path class="cls-3" d="M41.33,52.05s.06,0,.08,0c0,0,0-.01.01-.02,0,0,0,.02-.01.02-.03,0-.06,0-.08,0Z"/>
      <path class="cls-3" d="M40.35,52.05c-.06,0-.1-.04-.11-.1,0-.04,0-.07,0-.11,0,.04,0,.07,0,.11,0,.06.05.09.11.1.03,0,.05,0,.08,0,.14,0,.29,0,.43,0-.15,0-.29,0-.43,0-.03,0-.05,0-.08,0Z"/>
      <polygon class="cls-3" points="38.65 48.79 38.65 48.8 38.65 48.79 38.65 48.8 38.65 48.79"/>
      <path class="cls-3" d="M38.95,48.76s-.03-.06-.03-.09"/>
      <path class="cls-3" d="M38.95,48.76c-.02.16-.04.31-.06.47h0l-.04.35"/>
      <path class="cls-3" d="M37.35,52.05c-.1,0-.2,0-.3,0,.1,0,.2,0,.3,0,.05,0,.07-.02.09-.05-.02.03-.05.05-.09.05Z"/>
      <path class="cls-3" d="M37.5,50.55s0-.03-.01-.05h0s0,.03.01.05Z"/>
      <path class="cls-3" d="M37.47,51.9s0-.04,0-.06h0s0,.04,0,.06Z"/>
      <path class="cls-3" d="M37.6,48.8s0,0,0,0c0-.06,0-.12,0-.19,0,.06,0,.12,0,.19,0,0,0,0,0,0Z"/>
      <path class="cls-3" d="M31.55,44.53s0,.09,0,.14c0,.04.02.07.02.11.25.02.95.02,1.1-.01.03-.07.02-.15.02-.23,0-1.78,0-3.57,0-5.35,0-.04,0-.08,0-.12,0-.04-.01-.07-.02-.12-.19-.02-.38-.01-.56,0-.18,0-.37-.02-.55.02-.03.09-.02.17-.02.25,0,1.78,0,3.55,0,5.33Z"/>
      <path class="cls-3" d="M32.05,49.26c-.14-.19-.31-.34-.52-.5-.17-.13-.35-.26-.52-.39-.28-.21-.46-.48-.4-.85,0,0,0-.01,0-.02.01-.26.2-.42.44-.45.28-.04.54.04.77.19.05.03.1.06.17.11,0-.05.01-.08.01-.1,0-.27,0-.54,0-.81,0-.11-.04-.17-.14-.21-.29-.12-.58-.21-.9-.2-.34,0-.64.1-.91.32-.14.12-.25.25-.34.41-.15.25-.23.52-.23.81,0,.11,0,.22,0,.34,0,.34.12.65.32.92.13.18.3.33.48.46.21.16.42.31.64.46.13.09.2.21.26.34.1.21.08.43-.05.62-.1.16-.25.27-.45.29-.24.02-.48,0-.7-.1-.08-.04-.15-.08-.23-.12-.03-.02-.06-.04-.09,0v.98s.02.03.03.04c.31.22.66.28,1.03.29.06,0,.13-.02.19-.03.59-.08,1.02-.39,1.25-.94.16-.38.22-.77.14-1.18-.05-.24-.14-.47-.29-.67Z"/>
      <path class="cls-3" d="M26.45,46.25c-.09.38-.18.77-.27,1.15-.14.6-.28,1.2-.42,1.81-.14.6-.28,1.2-.42,1.81-.06.26-.12.53-.18.79-.01.05-.01.1-.02.16.13.04.25.02.36.02.13,0,.25,0,.38,0,.12,0,.24.01.36-.01.06-.28.12-.55.18-.81.03-.13.04-.15.16-.15.32,0,.65,0,.97,0,.04,0,.09.02.12.03.06.28.12.54.18.8.03.14.04.14.17.14.31,0,.62,0,.93,0,.03,0,.06,0,.1-.02,0-.05,0-.08,0-.12-.14-.58-.28-1.15-.42-1.73-.12-.52-.25-1.04-.37-1.56-.18-.75-.36-1.5-.55-2.24-.02-.06-.02-.13-.08-.19-.35,0-.71,0-1.06,0-.09,0-.11.02-.13.12ZM26.65,49.92c.07-.43.15-.85.22-1.28.03-.18.04-.37.07-.55.02-.15.05-.31.08-.46.01,0,.03,0,.04,0,.07.27.08.54.12.81.05.27.1.53.15.79.05.27.19.78.16.82-.02.03-.06.03-.09.03-.22,0-.45,0-.67,0-.02,0-.04,0-.05-.01-.04-.05-.03-.1-.02-.15Z"/>
      <path class="cls-3" d="M24.18,38.93c-.06,0-.1.03-.11.09-.08.35-.17.7-.25,1.06,0,.03,0,.05-.01.08-.06.06-.05.15-.08.22-.05.15-.07.3-.11.46,0,.03,0,.05-.01.08-.01.02-.03.03-.03.05-.05.18-.09.37-.14.55,0,.04,0,.08-.01.12,0,.03-.01.05-.02.08,0,0-.02.02-.03.03-.04.16-.08.32-.08.49,0,.04,0,.08-.01.12-.04.06-.05.12-.05.19,0,.07-.02.14-.06.2-.06-.05-.06-.11-.07-.17-.03-.11,0-.24-.08-.34,0-.03,0-.05,0-.08-.02-.15-.05-.3-.12-.43,0-.03-.01-.05-.02-.08-.06-.23-.11-.47-.17-.7,0,0,0,0-.01-.01,0-.03,0-.05-.01-.08,0-.02,0-.04,0-.06-.1-.39-.19-.78-.29-1.17-.01-.04-.03-.08-.05-.12,0-.03-.01-.05-.02-.08,0-.16-.06-.3-.11-.46-.05,0-.1-.02-.14-.02-.32,0-.63,0-.95,0-.02,0-.06,0-.08.03-.02.03-.01.06,0,.09.54,1.86,1.07,3.72,1.61,5.59,0,.03.01.08.06.12.01.02.03.03.04.03.29,0,.58,0,.87,0,.02-.03.03-.05.03-.06.11-.38.21-.76.31-1.14,0,0,0-.01,0-.02,0-.03,0-.05.01-.08.09-.18.12-.37.18-.56.13-.47.26-.94.39-1.41.06-.22.11-.43.17-.65,0-.03,0-.05.01-.08.02-.05.06-.1.07-.16.07-.25.14-.51.2-.76.03-.1.05-.2.08-.31,0-.03,0-.05.01-.08.05-.05.06-.13.08-.19.02-.05.03-.11.06-.16.02-.04.05-.03.08,0,0,.06-.01.12-.01.18,0,1.75,0,3.49,0,5.24,0,.06,0,.12.01.18,0,.02.01.06.03.06.04.01.08.01.12.01.67,0,1.34,0,2.02,0,.04,0,.09,0,.14-.01.03-.12.01-.23.02-.34,0-.12,0-.24,0-.36,0-.11.03-.22-.02-.33-.07-.03-.14-.02-.2-.02-.26,0-.53,0-.79,0-.05,0-.11.01-.15-.04,0-.02-.01-.03-.01-.05,0-.38,0-.76,0-1.15,0-.04.02-.09.03-.13.31,0,.61,0,.92,0,.01,0,.02,0,.04-.01.06,0,.05-.05.05-.08,0-.28,0-.57,0-.85,0-.03,0-.05-.01-.09-.06,0-.12-.01-.18-.01-.24,0-.47,0-.71,0-.04,0-.09-.02-.14-.03,0-.44,0-.87,0-1.29h0c.07,0,.14-.01.22-.01.26,0,.52,0,.79,0,.05,0,.1,0,.16-.02,0-.04.01-.07.01-.1,0-.28,0-.55,0-.83,0-.03,0-.05-.02-.08,0-.01-.03,0-.05-.01-.05,0-.1-.02-.15-.02-.62,0-1.25,0-1.87,0-.05,0-.1,0-.16.01-.38,0-.75-.01-1.13-.02-.03,0-.05,0-.08,0Z"/>
      <path class="cls-3" d="M6.7,26.42s0-.02.01-.02c0,0-.01,0-.02,0,0,0,0,.01.01.02Z"/>
      <path class="cls-3" d="M24.85,46.14c-.12-.02-2.64-.03-2.85-.02-.02,0-.05.01-.08.02-.03.17-.01.33-.01.5,0,.17-.02.34.02.52.06,0,.12,0,.18,0,.2,0,.4,0,.59,0,.04,0,.07.01.12.02v3.57c0,.2,0,.4,0,.59,0,.2-.02.39.01.59.15.03.87.04,1.1,0,0-.09,0-.17,0-.24,0-1.42,0-2.84,0-4.26,0-.05,0-.11,0-.16,0-.04.01-.07.02-.12.07,0,.13,0,.19,0,.2,0,.41,0,.61,0,.04,0,.07-.01.12-.02,0-.33.01-.65-.01-.98,0-.01-.01-.02-.02-.03Z"/>
      <path class="cls-3" d="M40.3,51.96c.2.05.39.02.58.02.19,0,.38,0,.57,0h0"/>
      <path class="cls-3" d="M40.86,46.34c0-.07-.02-.13-.07-.17-.02,0-.03-.01-.04-.01-.45,0-.9,0-1.35,0-.03,0-.06.01-.1.02l.63,1.82h0s0-.05,0-.08c0-.12.02-.16.06-.14.07.04.03.1.04.16,0,.03,0,.05-.01.08-.01,0-.02,0-.03,0,.01,0,.02,0,.03,0,.01.07.03.14.03.21"/>
      <path class="cls-3" d="M47.61,46.43c-.02-.09-.02-.18-.09-.27-.36,0-.73,0-1.1,0-.02,0-.05.02-.08.03,0,.05-.01.09-.02.13-.13.54-.26,1.09-.39,1.63-.11.46-.21.92-.32,1.38-.04.18-.08.36-.13.54-.09.38-.18.77-.27,1.15-.06.28-.13.56-.19.85,0,.04,0,.08,0,.12.03,0,.06.02.08.02.32,0,.63,0,.95,0,.02,0,.04-.01.06-.02.06-.28.12-.55.17-.83.02-.1.04-.12.14-.12.33,0,.66,0,.99,0,.09,0,.12.03.14.11.03.12.05.25.08.37.03.13.06.26.09.38.02.1.04.11.13.12.01,0,.03,0,.04,0,.31,0,.62,0,.93,0,.04,0,.07-.02.11-.02,0-.03,0-.05,0-.07-.11-.45-.21-.9-.32-1.34-.13-.54-.26-1.08-.39-1.61-.14-.59-.28-1.18-.43-1.77-.06-.26-.12-.51-.18-.77ZM47.29,50.13c-.11.02-.65,0-.77-.02-.04-.06,0-.18,0-.18.03-.17.28-1.85.32-2.16,0-.04,0-.08.02-.11,0-.01.03-.03.04-.03.01,0,.04.02.04.03.01.08.37,2.29.39,2.39,0,.01,0,.03,0,.04-.01.01-.03.03-.05.03Z"/>
      <path class="cls-3" d="M44.57,39.78c.13.3.27.6.4.91.14.32.28.64.42.96.04.09.06.17.02.26-.01.03-.02.06-.04.09-.16.39-.32.78-.48,1.17-.19.46-.38.93-.57,1.39-.03.07-.05.15-.08.23.04.01.06.02.09.02.2.02,1.03,0,1.16-.02.05-.14.11-.29.16-.44.05-.14.11-.28.16-.43.05-.15.1-.3.14-.45.04-.15.07-.3.14-.46.1.12.09.25.13.36.05.12.07.24.11.36.04.12.09.25.14.37.05.12.09.23.14.35.05.11.07.24.15.34.19.02,1.1.02,1.27,0,0-.03,0-.05-.01-.07-.22-.5-.44-1-.67-1.5-.19-.43-.39-.87-.58-1.3-.04-.08-.03-.16,0-.25.2-.45.4-.91.6-1.36.18-.42.37-.83.55-1.25.01-.03.01-.06.02-.09-.16-.03-.98-.03-1.18,0-.04.08-.08.17-.12.27-.04.1-.08.19-.12.29-.04.09-.08.18-.12.27s-.06.19-.09.28c-.03.1-.06.2-.09.3-.03.09-.03.19-.09.28-.05-.05-.06-.11-.07-.17-.02-.09-.04-.18-.08-.27-.15-.39-.3-.77-.45-1.16-.03-.08-.08-.11-.16-.11-.35,0-.7,0-1.05,0-.02,0-.04.01-.07.02.01.04.02.06.03.09.1.24.2.47.31.71Z"/>
      <path class="cls-3" d="M12.38,17.57s0-.01-.01-.01,0,0-.01,0c0,0,0,.01.01.01,0,0,0,0,.01,0Z"/>
      <path class="cls-3" d="M42.19,46.17c-.03.08-.02.15-.02.22,0,1.79,0,3.58,0,5.37,0,.04,0,.08,0,.12,0,.04.01.07.02.12.07,0,.14,0,.2,0h.99c.32,0,.63,0,.95,0,.05,0,.11.01.15-.04.02-.25.02-.85-.01-.99-.06-.04-.13-.02-.19-.02-.26,0-.52,0-.77,0-.06,0-.12.02-.18-.03,0-.02-.01-.04-.01-.07,0-.4,0-.81,0-1.21,0-.01.01-.02.03-.05.05,0,.11,0,.16-.01.23,0,.46,0,.69,0,.04,0,.09,0,.14-.02.02-.13,0-.24.01-.36,0-.11,0-.22,0-.34,0-.12.02-.24-.03-.36-.07,0-.13,0-.2,0-.22,0-.45,0-.67,0-.04,0-.09-.01-.13-.02,0-.03-.02-.05-.02-.07,0-.38,0-.75,0-1.13,0-.02.02-.05.03-.08.07,0,.13,0,.2,0,.27,0,.54,0,.81,0,.04,0,.09-.02.12-.02.02-.27.02-.86-.01-1.01-.04,0-.08-.02-.13-.02-.68,0-1.36,0-2.04,0-.04,0-.08.01-.11.02Z"/>
      <path class="cls-3" d="M42.13,38.98c-.04.07-.02.15-.02.23,0,1.19,0,2.38,0,3.57,0,.21,0,.42-.03.63-.02.12-.07.23-.13.33-.03.06-.09.1-.16.12-.11.03-.22.05-.33.05-.29,0-.45-.18-.5-.4-.04-.17-.06-.35-.07-.53,0-.69,0-1.39,0-2.08,0-.58,0-1.15,0-1.72,0-.06.02-.13-.02-.19-.18-.03-.92-.03-1.09,0v.23c0,1.38,0,2.76,0,4.14,0,.23.04.44.11.66.13.37.39.61.74.76.24.1.49.15.75.14.09,0,.17,0,.26,0,.26,0,.51-.04.75-.14.28-.11.5-.29.65-.56.12-.23.18-.47.18-.72,0-1.44,0-2.88,0-4.32,0-.03,0-.07,0-.1,0-.04-.02-.07-.03-.1-.21-.02-.91-.02-1.06,0Z"/>
      <path class="cls-3" d="M16.26,14.04s0,0-.01-.01c-.01,0-.02,0-.03.01,0,0,.01.01.01.01.01,0,.02,0,.03-.01Z"/>
      <path class="cls-3" d="M27.89,44.54s0,.08,0,.12c0,.04.01.07.02.12.19.01.38,0,.56,0,.18,0,.37.02.56-.02.02-.13,0-.26.01-.38,0-.12,0-.25,0-.38v-1.15c0-.13,0-.25,0-.38,0-.12,0-.25.03-.37.2.43.36.88.53,1.32.17.45.33.9.52,1.35.06,0,.11,0,.16,0,.32,0,.63,0,.95,0,0,0,.01,0,.02,0,0,0,0-.01.02-.03-.08-.29-.21-.57-.32-.86-.11-.3-.22-.59-.34-.89-.11-.29-.22-.57-.32-.85.02-.03.02-.04.03-.05.04-.03.09-.06.13-.09.32-.24.53-.56.62-.96.02-.1.03-.2.04-.29.01-.1,0-.19,0-.29,0-.13-.01-.25-.04-.37-.1-.41-.33-.73-.71-.93-.3-.16-.64-.21-.97-.23-.45-.02-.9,0-1.35,0-.04,0-.08,0-.12.01-.04.08-.02.16-.02.24,0,1.78,0,3.57,0,5.35ZM29.06,39.86c.21-.02.42-.01.62.09.14.07.23.18.27.32.1.34.08.67-.13.98-.02.03-.05.06-.08.08-.18.12-.38.16-.6.15-.08,0-.1-.04-.11-.11,0-.04,0-.08,0-.12,0-.4,0-.79,0-1.19,0-.06-.02-.13.03-.2Z"/>
      <path class="cls-3" d="M36.54,44.82h.32c.6,0,1.2,0,1.8,0,.06,0,.13.02.19-.03,0-.01.01-.03.01-.04,0-.3,0-.59,0-.89,0-.02-.01-.05-.02-.08-.2-.02-.39,0-.58-.01-.19,0-.38,0-.6,0,0-.25,0-.47,0-.7,0-.23,0-.46,0-.69v-2.02c0-.23,0-.46,0-.69,0-.22.01-.45,0-.68-.19-.04-.38-.02-.56-.02-.19,0-.38-.02-.58.02,0,.09,0,.17,0,.25,0,1.78,0,3.55,0,5.33,0,.05,0,.09,0,.14,0,.04.02.07.03.12Z"/>
      <polygon class="cls-3" points="62.13 25.76 62.12 25.77 62.14 25.77 62.13 25.76"/>
      <path class="cls-3" d="M38.33,51.63s-.05-.04-.05-.06c0,.02.02.03.05.06Z"/>
      <path class="cls-3" d="M40.66,20.63c-.06,0-.12,0-.19,0-.31,0-.62,0-.93,0-.44,0-.87,0-1.31,0-.06,0-.12.02-.17-.03,0-.01-.01-.03-.01-.04,0-.36,0-.73,0-1.09,0-.02.02-.05.03-.08h.83c.53,0,1.06,0,1.59,0,.06,0,.13.02.19-.04,0-.03,0-.06,0-.09,0-.79,0-1.59,0-2.38,0-.04-.01-.08-.02-.12-.04,0-.07-.02-.1-.02-.05,0-.11,0-.16,0-.73,0-1.47,0-2.2,0-.07,0-.14.01-.22-.03,0-.07,0-.14,0-.21,0-1.09,0-2.18,0-3.27,0-.07.01-.14-.02-.22-.08-.03-.16-.02-.23-.02-2.56,0-5.12,0-7.67,0-.04,0-.08,0-.12,0-.04,0-.07.01-.11.02,0,.04,0,.07,0,.11,0,.78,0,1.56,0,2.34,0,.03.01.06.02.1.09.03.16.02.24.02,1.53,0,3.07,0,4.6,0,.06,0,.12,0,.18,0,.04,0,.07.01.12.02,0,.09,0,.17,0,.25,0,3.87,0,7.75,0,11.62,0,.06,0,.12,0,.18,0,.02-.01.05-.02.07-.09-.02-.13-.09-.18-.14-.7-.7-1.4-1.4-2.1-2.1-.05-.05-.09-.11-.18-.14-.05.05-.1.1-.15.15-.79.79-1.58,1.58-2.37,2.37-.67.67-1.34,1.34-2,2.01-.05.05-.12.09-.13.16.1.14,1.39,1.45,1.92,1.95.03.03.06.05.1.07.16-.12.28-.27.42-.4.14-.13.27-.27.41-.41.14-.14.27-.27.41-.41.13-.13.26-.26.39-.39.14-.14.27-.27.41-.41.14-.14.27-.27.41-.41.14-.13.26-.28.41-.4.09.03.13.1.19.15.94.94,1.89,1.89,2.83,2.83.09.09.18.13.31.13.61,0,1.22,0,1.82,0,.06,0,.12,0,.17,0,.04-.09.02-.17.02-.24,0-2.75,0-5.5,0-8.25,0-.06,0-.12,0-.18,0-.03.01-.06.02-.09.08-.04.15-.02.22-.02.73,0,1.45,0,2.18,0,.07,0,.15.02.22-.03,0-.06,0-.11,0-.17,0-.24,0-.48,0-.71,0-.6,0-1.19,0-1.79,0-.06.02-.13-.04-.2Z"/>
      <polygon class="cls-3" points="59.59 21.16 59.59 21.18 59.6 21.17 59.59 21.16"/>
      <path class="cls-3" d="M9.16,21.74v-.02s-.02,0-.02.01c0,0,.02,0,.02.01Z"/>
      <path class="cls-3" d="M39.41,51.27s0,0,0,0l-.08.52c.03-.17.06-.34.09-.52Z"/>
      <path class="cls-3" d="M36.19,51.91s0,.08.04.11c0,0,0,0,0,0-.03-.02-.04-.05-.04-.11h0Z"/>
      <path class="cls-3" d="M37.51,51.15h0s0,.04,0,.06c0-.02,0-.04,0-.06Z"/>
      <path class="cls-3" d="M36.34,52.05s-.07,0-.1-.02c.04.02.08.02.1.02Z"/>
      <path class="cls-5" d="M68.9,40.51c-.49.23-.97.49-1.41.8-.23.16-.45.32-.67.49-.31.25-.61.51-.89.78-.13.12-.24.26-.36.39-.18.18-.34.38-.5.59-.29.38-.55.77-.78,1.19-.16.29-.3.59-.43.89-.09.23-.17.46-.25.69,0,.02-.01.05-.06.03-.02-.19-.05-.38-.07-.58-.04-.25-.07-.51-.11-.76-.06-.33-.14-.66-.24-.98-.2-.71-.48-1.38-.85-2.02-.27-.47-.6-.9-.99-1.28-.09-.09-.18-.17-.28-.25-.13-.1-.26-.2-.39-.3-.04-.03-.08-.04-.12-.06-.02.03-.04.05-.05.07-.04.21-.1.43-.1.64-.02.41-.03.82.03,1.22.04.29.09.58.16.87.18.77.47,1.5.82,2.2.23.47.5.93.78,1.38.28.45.59.87.9,1.3.04.06.09.12.17.13.43-.15.81-.39,1.2-.61.44-.26.87-.55,1.27-.88.28-.22.54-.46.8-.7.17-.16.33-.34.49-.52.16-.19.33-.38.48-.58.24-.33.48-.66.68-1.02.17-.31.32-.62.46-.94.14-.35.26-.7.35-1.07.07-.31.15-.61.16-.93,0-.02.02-.04.03-.07v-.2c-.07.02-.15.04-.22.07Z"/>
      <path class="cls-5" d="M26.79,71.72c-.17.03-.34.03-.51-.03-.03-.01-.05-.03-.08-.05-.03,0-.05.03-.05.06,0,.02,0,.04,0,.07h1.31s0-.05,0-.07c-.22,0-.44-.02-.67.02Z"/>
      <path class="cls-5" d="M43.07,10.39s-.05-.02-.07-.02c-5.78,0-11.55,0-17.33,0-.02,0-.04.01-.05.02-.04.07-.02.14-.02.21,0,6.09,0,12.19,0,18.28,0,.05,0,.11,0,.16.02.2.04.39.06.59.01.14.02.29.05.43.08.49.17.97.31,1.45.12.41.26.8.43,1.19.2.44.43.87.71,1.26.21.3.43.6.7.85.09.09.18.18.27.27.27.29.59.53.91.75.49.34,1.02.61,1.57.83.54.22,1.1.37,1.67.48.34.07.69.12,1.04.13.02,0,.04,0,.06,0,.1.04.2.03.29.03.12,0,.24,0,.36,0,.1,0,.2.02.29.02.13,0,.26-.02.39-.03.23-.02.46,0,.69-.04.15-.03.3-.02.45-.04.38-.06.75-.12,1.12-.22.58-.15,1.14-.34,1.67-.61.42-.21.82-.45,1.2-.72.41-.29.77-.65,1.11-1.01.28-.3.53-.64.75-.99.25-.4.46-.82.64-1.25.13-.32.24-.66.34-.99.12-.4.2-.8.26-1.21.05-.34.11-.69.1-1.04,0-.03,0-.05,0-.08,0-.08.02-.17.03-.25,0-6.07,0-12.15,0-18.22,0-.04,0-.08,0-.12,0-.04,0-.08-.01-.11ZM40.7,22.62c0,.24,0,.48,0,.71,0,.06,0,.12,0,.17-.08.05-.15.03-.22.03-.73,0-1.45,0-2.18,0-.07,0-.14-.02-.22.02,0,.03-.01.06-.02.09,0,.06,0,.12,0,.18,0,2.75,0,5.5,0,8.25,0,.08.02.16-.02.24-.06,0-.11,0-.17,0-.61,0-1.22,0-1.82,0-.13,0-.22-.04-.31-.13-.94-.95-1.89-1.89-2.83-2.83-.06-.06-.1-.12-.19-.15-.15.12-.27.26-.41.4-.14.13-.27.27-.41.41-.14.14-.27.27-.41.41-.13.13-.26.26-.39.39-.14.14-.27.27-.41.41-.14.14-.27.27-.41.41-.14.13-.26.28-.42.4-.03-.03-.07-.05-.1-.07-.53-.5-1.82-1.81-1.92-1.95.02-.07.08-.11.13-.16.67-.67,1.34-1.34,2-2.01.79-.79,1.58-1.58,2.37-2.37.05-.05.1-.1.15-.15.09.02.13.09.18.14.7.7,1.4,1.4,2.1,2.1.05.05.09.12.18.14,0-.03.02-.05.02-.07,0-.06,0-.12,0-.18,0-3.87,0-7.75,0-11.62,0-.08,0-.16,0-.25-.05,0-.08-.02-.12-.02-.06,0-.12,0-.18,0-1.53,0-3.07,0-4.6,0-.08,0-.16.01-.24-.02,0-.03-.02-.06-.02-.1,0-.78,0-1.56,0-2.34,0-.03,0-.06,0-.11.04,0,.08-.02.11-.02.04,0,.08,0,.12,0,2.56,0,5.12,0,7.67,0,.08,0,.16-.01.23.02.03.07.02.15.02.22,0,1.09,0,2.18,0,3.27,0,.07,0,.14,0,.21.08.04.15.03.22.03.73,0,1.47,0,2.2,0,.05,0,.11,0,.16,0,.03,0,.06.01.1.02,0,.04.02.08.02.12,0,.79,0,1.59,0,2.38,0,.03,0,.06,0,.09-.06.06-.13.04-.19.04-.53,0-1.06,0-1.59,0h-.83s-.03.06-.03.08c0,.36,0,.73,0,1.09,0,.01,0,.02.01.04.05.05.11.03.17.03.44,0,.87,0,1.31,0,.31,0,.62,0,.93,0,.07,0,.13,0,.19,0,.06.07.04.14.04.2,0,.6,0,1.19,0,1.79Z"/>
      <path class="cls-5" d="M25.11,32.1s-.04,0-.06,0c-1.92,0-3.85,0-5.77,0-.06,0-.12,0-.18,0-.04.1-.03.18-.03.26v24.33s0,.08,0,.12c0,.04,0,.08.01.12.08,0,.15,0,.22,0,.85,0,1.7,0,2.56,0h9.59c.07,0,.13,0,.2,0,.35.06.7.15,1.03.29.5.21.98.46,1.42.78.02.01.04.02.08.03,0-.04.01-.06.01-.09,0-6.57,0-13.14,0-19.71,0-.01-.01-.02-.02-.04-.12-.01-.24-.03-.36-.04-.05,0-.09,0-.14,0-.2-.01-.39-.02-.59-.04-.21-.02-.42-.06-.62-.09-.28-.04-.56-.09-.83-.16-.57-.14-1.13-.32-1.67-.56-.55-.25-1.08-.53-1.56-.89-.36-.26-.69-.55-1.01-.85-.1-.09-.17-.2-.26-.29-.16-.16-.31-.34-.45-.52-.3-.38-.57-.78-.79-1.21-.22-.42-.44-.85-.57-1.3-.04-.12-.05-.13-.18-.13ZM24.88,47.15s-.08.02-.12.02c-.2,0-.41,0-.61,0-.06,0-.12,0-.19,0,0,.04-.02.08-.02.12,0,.05,0,.11,0,.16,0,1.42,0,2.84,0,4.26,0,.08,0,.16,0,.24-.22.03-.95.03-1.1,0-.03-.19,0-.39-.01-.59,0-.2,0-.4,0-.59v-3.57s-.08-.02-.12-.02c-.2,0-.4,0-.59,0-.06,0-.12,0-.18,0-.04-.18-.02-.35-.02-.52,0-.16-.02-.33.01-.5.03,0,.05-.02.08-.02.21-.02,2.73,0,2.85.02,0,0,.02.02.02.03.02.32,0,.65.01.98ZM32.19,51.11c-.23.55-.66.86-1.25.94-.07,0-.13.03-.19.03-.37-.01-.72-.08-1.03-.29-.01,0-.02-.02-.03-.04v-.98s.06-.02.09,0c.07.04.15.09.23.12.22.11.46.12.7.1.19-.02.35-.13.45-.29.12-.2.14-.41.05-.62-.06-.13-.13-.25-.26-.34-.22-.15-.43-.3-.64-.46-.18-.13-.35-.28-.48-.46-.2-.27-.32-.58-.32-.92,0-.11,0-.22,0-.34,0-.29.09-.56.23-.81.09-.15.2-.29.34-.41.27-.23.57-.31.91-.32.32,0,.61.07.9.2.1.04.14.1.14.21,0,.27,0,.54,0,.81,0,.02,0,.05-.01.1-.07-.05-.12-.08-.17-.11-.24-.15-.49-.23-.77-.19-.25.03-.43.2-.44.45,0,0,0,.01,0,.02-.06.37.12.63.4.85.17.13.35.26.52.39.21.16.39.32.52.5.15.2.24.42.29.67.08.41.02.8-.14,1.18ZM31.57,38.95c.18-.04.37-.02.55-.02.18,0,.37,0,.56,0,0,.05.02.09.02.12,0,.04,0,.08,0,.12,0,1.78,0,3.57,0,5.35,0,.08.01.16-.02.23-.15.03-.85.04-1.1.01,0-.03-.02-.07-.02-.11,0-.05,0-.09,0-.14,0-1.78,0-3.55,0-5.33,0-.08-.01-.16.02-.25ZM27.91,38.95s.08-.01.12-.01c.45,0,.9-.02,1.35,0,.34.01.67.07.97.23.38.2.61.51.71.93.03.12.04.24.04.37,0,.1.02.19,0,.29-.01.1-.02.2-.04.29-.09.4-.29.71-.62.96-.04.03-.09.06-.13.09-.01,0-.02.02-.03.05.1.28.21.57.32.85.11.3.23.59.34.89.11.29.23.57.32.86,0,.02-.01.03-.02.03,0,0-.01,0-.02,0-.32,0-.63,0-.95,0-.05,0-.1,0-.16,0-.19-.45-.34-.91-.52-1.35-.17-.44-.32-.89-.53-1.32-.04.13-.03.25-.03.37,0,.13,0,.25,0,.38v1.15c0,.12,0,.25,0,.38,0,.12.01.25-.01.38-.19.04-.37.01-.56.02-.18,0-.37,0-.56,0,0-.05-.02-.09-.02-.12,0-.04,0-.08,0-.12,0-1.78,0-3.57,0-5.35,0-.08-.01-.16.02-.24ZM27.73,46.32c.18.75.36,1.5.55,2.24.13.52.25,1.04.37,1.56.14.58.28,1.15.42,1.73,0,.04,0,.07,0,.12-.04,0-.07.02-.1.02-.31,0-.62,0-.93,0-.13,0-.14,0-.17-.14-.06-.26-.12-.53-.18-.8-.04,0-.08-.03-.12-.03-.32,0-.65,0-.97,0-.12,0-.14.02-.16.15-.06.27-.12.54-.18.81-.12.03-.24.01-.36.01-.13,0-.25,0-.38,0-.12,0-.24.02-.36-.02,0-.05,0-.11.02-.16.06-.26.12-.53.18-.79.14-.6.28-1.2.42-1.81.14-.6.28-1.2.42-1.81.09-.38.18-.77.27-1.15.02-.1.04-.12.13-.12.36,0,.71,0,1.06,0,.05.06.06.13.08.19ZM25.55,38.93c.62,0,1.25,0,1.87,0,.05,0,.1.01.15.02.02,0,.04,0,.05.01.01.02.02.05.02.08,0,.28,0,.55,0,.83,0,.03,0,.06-.01.1-.06,0-.11.02-.16.02-.26,0-.52,0-.79,0-.07,0-.14,0-.22,0h0c0,.43,0,.86,0,1.29.05.01.1.03.14.03.24,0,.47,0,.71,0,.06,0,.11,0,.18.01,0,.04.01.06.01.09,0,.28,0,.57,0,.85,0,.04,0,.08-.05.08-.01,0-.02.01-.04.01-.31,0-.61,0-.92,0-.01.04-.03.09-.03.13,0,.38,0,.76,0,1.15,0,.02,0,.04.01.05.04.05.1.04.15.04.26,0,.53,0,.79,0,.06,0,.13,0,.2.02.05.1.02.22.02.33,0,.12,0,.24,0,.36,0,.11.01.22-.02.34-.05,0-.09.01-.14.01-.67,0-1.34,0-2.02,0-.04,0-.08,0-.12-.01-.01,0-.02-.04-.03-.06,0-.06-.01-.12-.01-.18,0-1.75,0-3.49,0-5.24,0-.06,0-.12.01-.18-.03-.02-.06-.03-.08,0-.02.05-.04.11-.06.16-.02.07-.02.14-.08.19,0,.03,0,.05-.01.08-.03.1-.05.2-.08.31-.07.25-.13.51-.2.76-.02.06-.05.11-.07.16,0,.03,0,.05-.01.08-.06.22-.11.43-.17.65-.13.47-.26.94-.39,1.41-.05.19-.09.38-.18.56,0,.03,0,.05-.01.08,0,0,0,.01,0,.02-.1.38-.21.76-.31,1.14,0,.02-.02.03-.03.06-.29,0-.58,0-.87,0-.01,0-.03-.02-.04-.03-.04-.04-.05-.09-.06-.12-.54-1.86-1.07-3.72-1.61-5.59,0-.02-.01-.06,0-.09.02-.03.06-.03.08-.03.32,0,.63,0,.95,0,.05,0,.09,0,.14.02.05.15.1.3.11.46,0,.03.01.05.02.08.02.04.04.08.05.12.1.39.19.78.29,1.17,0,.02,0,.04,0,.06,0,.03,0,.05.01.08,0,0,.01,0,.01.01.06.23.11.47.17.7,0,.03.01.05.02.08.07.14.09.29.12.43,0,.03,0,.05,0,.08.07.1.05.23.08.34.01.06.01.12.07.17.04-.06.06-.13.06-.2,0-.07,0-.13.05-.19,0-.04,0-.08.01-.12,0-.17.04-.33.08-.49,0-.01.02-.02.03-.03,0-.03.01-.05.02-.08,0-.04,0-.08.01-.12.04-.18.09-.37.14-.55,0-.02.02-.03.03-.05,0-.03,0-.05.01-.08.03-.15.06-.31.11-.46.02-.07.01-.16.08-.22,0-.03,0-.05.01-.08.08-.35.17-.7.25-1.06.01-.06.05-.09.11-.09.03,0,.05,0,.08,0,.38,0,.75.01,1.13.02.05,0,.1-.01.16-.01Z"/>
      <path class="cls-5" d="M42.14,34.4c-.22.3-.44.59-.71.85-.02.02-.04.05-.07.07-.08.09-.15.18-.24.26-.15.14-.31.26-.46.4-.28.25-.59.47-.9.67-.57.37-1.19.66-1.83.89-.33.12-.67.2-1.01.28-.3.07-.61.12-.91.14-.12,0-.24,0-.35.03-.11.03-.22.02-.33.03-.07,0-.15,0-.22,0-.04,0-.07.02-.12.03v.24c0,6.5,0,13.01,0,19.51,0,.06,0,.12,0,.18,0,.02.02.04.03.08.08-.07.14-.13.2-.18.46-.36.96-.64,1.53-.81.27-.08.54-.13.82-.13,4.08,0,8.15,0,12.23,0,.07,0,.15,0,.22,0,.03,0,.05,0,.08-.01.03-.08.02-.16.02-.24,0-8.11,0-16.22,0-24.33,0-.05,0-.09,0-.14,0-.04-.01-.07-.02-.11-.18-.03-6.52-.03-6.69,0,0,.02-.02.03-.03.05-.15.37-.3.73-.5,1.08-.22.4-.46.78-.73,1.15ZM36.52,39.23c0-.08,0-.16,0-.25.2-.04.39-.02.58-.02.18,0,.37-.02.56.02.02.23,0,.45,0,.68,0,.23,0,.46,0,.69v2.02c0,.23,0,.46,0,.69,0,.22,0,.45,0,.7.22,0,.41,0,.6,0,.19,0,.38-.01.58.01,0,.03.02.05.02.08,0,.3,0,.59,0,.89,0,.01,0,.02-.01.04-.05.05-.12.03-.19.03-.6,0-1.2,0-1.8,0h-.32s-.02-.08-.03-.12c0-.05,0-.09,0-.14,0-1.78,0-3.55,0-5.33ZM39.41,51.27l.07-.38s.35.21-.07.38ZM39.52,50.67h0s.02-.08.02-.13c.04.07.04.08-.02.13,0,.01,0,.02,0,0ZM39.7,50.13s-.08.03-.09.03c0,0,.07-.26.08-.38,0,0,0,0,0,0,.03.13.05.23.01.35ZM41.45,51.98l-.04.06s-.06,0-.08,0c-.01,0-.02,0-.03,0-.15,0-.29,0-.44,0-.15,0-.29,0-.43,0-.03,0-.05,0-.08,0-.06,0-.1-.04-.11-.1l-.02-.22-.18-3.51c0-.07-.02-.14-.03-.21-.01,0-.02,0-.03,0h-.05s-.06.38-.06.38c.01.07.02.17.02.19-.01.13.02.69,0,.82,0,0-.06.02-.13.03.01.03,0,.07-.03.05v-.05s-.01,0-.03,0l-.29,1.82s0,0,0,0c-.03.17-.06.34-.09.52h0s.02.08.02.11c0,.03-.02.06-.07.08h0s0,0,0,0h0s-.03.06-.06.06c0,0,0,0,0,0-.05,0-.09,0-.14,0-.18,0-.36,0-.53,0-.05,0-.09,0-.11-.06-.05-.05-.05-.07-.06-.13l-.02-.12s0-.07-.01-.11c-.03-.03-.05-.04-.05-.06,0,0,0-.03.01-.04,0-.01,0-.02.01-.03,0-.02-.02-.05-.02-.07-.02-.01,0-.03,0-.04v.04s0-.04,0-.04c0-.02-.03-.04-.01-.06,0-.03-.01-.07-.02-.1l-.02-.08c-.03-.16-.06-.31-.09-.47h0s-.03-.01-.03-.02c-.02-.08-.04-.17-.06-.26h0s.01-.03.02-.05l-.14-.67h0,0c-.07-.12-.08-.2-.07-.34h0s0,0,0,0c-.03-.19-.06-.38-.09-.57h0s-.02-.03-.03-.05c-.01-.02-.01-.05,0-.07,0-.01,0-.03.02-.05-.07-.09-.09-.19-.12-.29,0-.02.01-.09,0-.12-.05.02-.04.03-.04.05,0,.12,0,.25,0,.37,0,.06,0,.12,0,.19,0,0,0,0,0,0,0,.03,0,.06-.02.09,0,.02-.02.03-.04.04l-.04.98c0,.2,0,.4-.01.59.04-.24,0,.06,0,0,0,.02,0,.03.01.05,0,.02.01.04.01.07,0,.18,0,.36,0,.53h0s0,.04,0,.06c.03.2-.03.42-.04.63h0s0,.04,0,.06c0,.01,0,.03,0,.04,0,.02-.02.04-.03.06-.02.03-.05.05-.09.05-.1,0-.2,0-.3,0-.03,0-.07,0-.1,0-.2,0-.41,0-.61,0-.02,0-.06,0-.1-.02,0,0,0,0,0,0,0,0,0,0,0,0-.04-.03-.04-.08-.04-.11h0c.11-1.19.22-2.37.33-3.56.07-.72.13-1.44.2-2.17.04-.01.08-.03.12-.03.41,0,.83,0,1.24,0,.01,0,.03,0,.04,0,.08,0,.11.03.13.12,0,.03.37,2.32.4,2.52t0,0c.05.03.08.04.03.08.03.09.06.21.06.23.02.1.09.37.11.47,0-.18,0,0,.03-.18l.02-.17.41-3.05s.07-.02.1-.02c.45,0,.9,0,1.35,0,.01,0,.03,0,.04.01.05.04.07.11.07.17l.59,5.63M41.45,51.98h0,0M48.61,50.57c.11.45.21.9.32,1.34,0,.02,0,.04,0,.07-.04,0-.07.02-.11.02-.31,0-.62,0-.93,0-.01,0-.03,0-.04,0-.09,0-.1-.02-.13-.12-.03-.13-.06-.26-.09-.38-.03-.12-.05-.24-.08-.37-.02-.08-.05-.11-.14-.11-.33,0-.66,0-.99,0-.1,0-.12.02-.14.12-.06.28-.12.55-.17.83-.02,0-.04.02-.06.02-.32,0-.63,0-.95,0-.03,0-.05,0-.08-.02,0-.04,0-.08,0-.12.06-.28.13-.56.19-.85.09-.38.18-.77.27-1.15.04-.18.08-.36.13-.54.11-.46.21-.92.32-1.38.13-.54.26-1.09.39-1.63.01-.04.02-.09.02-.13.03-.01.05-.03.08-.03.37,0,.74,0,1.1,0,.07.08.07.18.09.27.07.25.12.51.18.77.14.59.28,1.18.43,1.77.13.54.26,1.08.39,1.61ZM44.31,38.97c.35,0,.7,0,1.05,0,.09,0,.13.04.16.11.15.39.3.77.45,1.16.03.09.05.18.08.27.01.06.02.11.07.17.06-.09.06-.19.09-.28.04-.1.06-.2.09-.3.03-.09.06-.19.09-.28s.08-.18.12-.27c.04-.1.08-.19.12-.29.04-.09.08-.18.12-.27.2-.03,1.03-.02,1.18,0,0,.03,0,.06-.02.09-.18.42-.37.83-.55,1.25-.2.45-.4.91-.6,1.36-.04.08-.04.16,0,.25.2.43.39.87.58,1.3.22.5.44,1,.67,1.5,0,.02,0,.04.01.07-.17.02-1.07.03-1.27,0-.07-.1-.1-.22-.15-.34-.05-.12-.1-.23-.14-.35-.05-.12-.09-.25-.14-.37-.04-.12-.07-.24-.11-.36-.04-.11-.04-.25-.13-.36-.07.16-.1.31-.14.46-.05.15-.09.3-.14.45-.05.14-.11.28-.16.43-.05.15-.11.29-.16.44-.13.02-.97.03-1.16.02-.02,0-.05-.01-.09-.02.03-.08.05-.16.08-.23.19-.46.38-.93.57-1.39.16-.39.32-.78.48-1.17.01-.03.02-.06.04-.09.04-.09.02-.17-.02-.26-.14-.32-.28-.64-.42-.96-.13-.3-.27-.6-.4-.91-.1-.24-.2-.47-.31-.71-.01-.02-.02-.05-.03-.09.03,0,.05-.02.07-.02ZM44.34,46.16s.09.01.13.02c.03.15.04.74.01,1.01-.04,0-.08.02-.12.02-.27,0-.54,0-.81,0-.07,0-.13,0-.2,0-.01.04-.03.06-.03.08,0,.38,0,.75,0,1.13,0,.02,0,.04.02.07.04,0,.08.02.13.02.22,0,.45,0,.67,0,.07,0,.13,0,.2,0,.05.12.02.24.03.36,0,.11,0,.22,0,.34,0,.12,0,.24-.01.36-.05,0-.1.02-.14.02-.23,0-.46,0-.69,0-.06,0-.12,0-.16.01-.01.02-.03.04-.03.05,0,.4,0,.81,0,1.21,0,.02,0,.05.01.07.06.05.12.03.18.03.26,0,.52,0,.77,0,.06,0,.13-.02.19.02.03.14.03.74.01.99-.04.05-.1.04-.15.04-.32,0-.63,0-.95,0h-.99c-.07,0-.13,0-.2,0,0-.05-.02-.09-.02-.12,0-.04,0-.08,0-.12,0-1.79,0-3.58,0-5.37,0-.07-.01-.14.02-.22.04,0,.08-.02.11-.02.68,0,1.36,0,2.04,0ZM43.22,39.08s0,.07,0,.1c0,1.44,0,2.88,0,4.32,0,.25-.06.5-.18.72-.14.27-.37.45-.65.56-.24.09-.49.14-.75.14-.09,0-.17,0-.26,0-.26,0-.52-.04-.75-.14-.35-.14-.61-.39-.74-.76-.08-.21-.11-.43-.11-.66,0-1.38,0-2.76,0-4.14v-.23c.17-.04.91-.04,1.09,0,.04.06.02.12.02.19,0,.57,0,1.15,0,1.72,0,.69,0,1.39,0,2.08,0,.18.03.35.07.53.04.21.21.39.5.4.11,0,.22-.02.33-.05.07-.02.12-.06.16-.12.06-.1.11-.2.13-.33.03-.21.03-.42.03-.63,0-1.19,0-2.38,0-3.57,0-.08-.02-.16.02-.23.15-.02.85-.03,1.06,0,0,.03.02.07.03.1Z"/>
      <path class="cls-5" d="M16.78,59.37s.01.07.02.12c.07,0,.13.01.18.01.28,0,.56,0,.83,0h13.16c.08,0,.16,0,.24,0,.33.05.65.14.93.31.37.22.62.53.67.97.01.08.02.17.07.24.04,0,.07,0,.1,0,1.1,0,2.19,0,3.29,0,.04,0,.08,0,.11-.02.03-.1.06-.2.08-.29.08-.31.2-.6.41-.85.06-.07.13-.13.2-.19.18-.14.38-.19.61-.19,4.75,0,9.49,0,14.24,0,.07,0,.13,0,.2,0,.04,0,.08,0,.12-.01.04-.09.02-.18.02-.26,0-8.43,0-16.87,0-25.3,0-.04,0-.08,0-.12,0-.08-.02-.14-.07-.19-.29-.29-.57-.59-.85-.88-.05-.05-.09-.1-.14-.14-.1-.11-.21-.22-.31-.33-.02-.02-.05-.04-.08-.01,0,0,0,.01,0,.02s0,.01,0,.02c0,0,0,.01,0,.02,0,0,0,.01,0,.02,0,0,0,.01,0,.02v25.22s0,.01,0,.02c0,0,0,.01,0,.02,0,0,0,.01,0,.02,0,0,0,.01,0,.02,0,0,0,.01,0,.02s0,.01-.02.03c-.07.03-.16.01-.24.01-4.21,0-8.42,0-12.63,0-.23,0-.46.04-.68.1-.46.12-.88.31-1.29.55-.5.3-.95.67-1.32,1.12-.01.01-.03.02-.06.03-.02-.01-.05-.03-.06-.04-.27-.34-.59-.64-.96-.88-.42-.27-.86-.49-1.34-.62-.43-.11-.86-.18-1.31-.18-4.06,0-8.12,0-12.17,0-.07,0-.13,0-.2,0-.04,0-.07,0-.12-.02-.03-.09-.02-.18-.02-.26,0-8.28,0-16.55,0-24.83,0-.05,0-.11,0-.16,0-.02-.01-.04-.03-.08-.06.06-.11.1-.16.15-.42.42-.83.83-1.25,1.25-.2.2-.17.12-.17.39,0,8.33,0,16.66,0,24.99,0,.06,0,.12,0,.18Z"/>
      <path class="cls-5" d="M54.4,3.22c.03.18.04.37.07.55.11.5.26.98.51,1.43.07.13.16.26.24.39.14.2.3.38.48.55.14.14.3.25.47.36.18.12.37.2.57.28.39.16.81.24,1.23.25.23,0,.46-.03.68-.08.27-.05.52-.14.76-.26.21-.11.43-.21.66-.27.29-.08.59-.14.9-.13.08,0,.16.02.24.03.33.02.63.13.93.26.26.12.5.28.71.47.17.15.33.31.47.48.15.19.27.41.37.63.12.29.2.6.2.92,0,.2,0,.39-.03.59-.02.16-.04.32-.09.48-.07.22-.23.33-.43.4-.06.02-.1,0-.14-.04-.04-.04-.06-.08-.06-.14,0-.12.01-.24.05-.35.11-.3.14-.62.12-.93,0-.06,0-.12,0-.18-.04-.22-.09-.44-.18-.65-.13-.3-.31-.57-.57-.77-.37-.3-.78-.5-1.27-.56-.28-.03-.56-.04-.85,0-.3.05-.59.16-.84.33-.41.29-.71.67-.89,1.14-.07.18-.11.36-.15.55-.02.12-.02.24-.04.35-.04.22-.04.43,0,.65,0,.02-.01.04-.02.07-.09-.03-.13-.09-.18-.14-.76-.76-1.51-1.51-2.27-2.27-.07-.07-.13-.13-.2-.19-.02-.01-.04-.02-.07-.03v.51s0,.04,0,.06c.05.13.03.27.03.41,0,.05,0,.11,0,.16.04.17.03.34.03.51,0,.04,0,.08,0,.12,0,.09.02.18.02.27,0,.05,0,.11,0,.16-.01.1.03.18.1.24.02.01.03.03.04.04,1.65,1.65,3.3,3.3,4.95,4.95.34.34.67.67,1.01,1.01.06.06.12.09.21.09.68,0,1.36,0,2.04,0,.02,0,.05-.01.07-.02-.03-.09-.09-.13-.14-.18-.6-.6-1.2-1.2-1.79-1.8-.04-.04-.08-.07-.11-.11-.01-.02-.02-.04-.04-.09.1.03.17.05.25.06.52.12,1.04.23,1.57.27.16.01.32.02.49,0,.25-.03.49-.08.74-.14.37-.1.72-.26,1.03-.49.38-.28.7-.61.95-1.02.23-.38.4-.77.5-1.2.04-.17.08-.33.11-.5.06-.32.12-.65.11-.98,0-.14,0-.27-.03-.41-.02-.14-.02-.29-.05-.43-.12-.65-.36-1.25-.68-1.83-.32-.57-.71-1.08-1.15-1.56-.28-.31-.61-.57-.95-.8-.39-.27-.82-.48-1.25-.67-.45-.2-.91-.35-1.39-.47-.31-.08-.61-.15-.93-.19-.32-.04-.64-.1-.96-.12-.27-.02-.53-.07-.8-.12-.57-.11-1.13-.27-1.67-.49-.2-.08-.39-.16-.58-.26-.19-.09-.37-.2-.55-.31-.42-.24-.81-.53-1.16-.85-.35-.33-.69-.67-.95-1.08-.02-.04-.06-.07-.11-.12-.03.07-.05.11-.07.16-.06.19-.12.38-.16.57-.07.37-.13.74-.14,1.11,0,.03,0,.07,0,.1-.04.1-.03.21-.03.31,0,.32-.03.65.03.97Z"/>
      <path class="cls-5" d="M52.75,24.5s-.03-.04-.05-.06c-.47-.48-.94-.94-1.4-1.43-.71-.75-1.46-1.45-2.17-2.2-.46-.49-.95-.96-1.43-1.43-.04-.04-.08-.06-.13-.1-.25.26-.49.51-.73.77-.18.19-.35.39-.53.59-.18.2-.37.39-.56.59,0,0-.02.02-.03.03-.18.2-.35.4-.53.59-.19.2-.38.4-.57.6,0,0-.02.02-.03.03-.18.23-.39.43-.59.64-.08.09-.13.18-.13.31,0,1.51,0,3.01,0,4.52,0,.05,0,.1,0,.14.04.12.03.25.03.37,0,.24,0,.48,0,.71,0,.32-.01.63-.07.94-.06.35-.12.7-.23,1.04-.01.03-.01.06-.02.12.09,0,.16,0,.22,0,.65,0,1.31,0,1.96,0,.26,0,.2.02.38-.16,1.53-1.53,3.06-3.06,4.58-4.58.63-.63,1.25-1.25,1.88-1.88.04-.04.11-.08.12-.16Z"/>
      <path class="cls-5" d="M52.6,13.65c-.17.19-.33.38-.5.56-.19.21-.39.41-.58.62,0,0-.02.02-.03.03-.19.21-.37.41-.56.62-.19.2-.38.4-.57.61-.07.07-.12.15-.19.25.04.05.07.09.1.12.11.1.22.19.32.29.83.81,1.64,1.65,2.48,2.45.66.63,1.29,1.29,1.94,1.93.22.22.46.44.69.65.01.01.03.02.06.03.03-.02.06-.04.09-.07.49-.49.98-.98,1.49-1.46.77-.73,1.49-1.51,2.27-2.24.51-.48.99-.99,1.49-1.48.03-.03.04-.06.07-.1-.06-.06-.11-.11-.16-.16-.98-.98-1.96-1.96-2.94-2.94-.85-.85-1.69-1.69-2.54-2.54-.05-.05-.09-.11-.17-.14-.03.03-.07.06-.1.09-.09.1-.18.2-.27.29-.04.05-.09.09-.14.14-.08.09-.17.19-.25.28-.08.09-.16.19-.25.28-.19.21-.39.41-.58.62,0,0-.02.02-.03.03-.17.19-.34.39-.51.58-.19.21-.39.41-.59.62-.01.01-.03.03-.04.04Z"/>
      <path class="cls-5" d="M67.52,67.36c-.3-.33-.63-.62-.92-.95-.31-.35-.67-.66-.98-1.01-.29-.33-.63-.62-.92-.95-.31-.35-.66-.65-.96-1-.3-.34-.64-.63-.94-.97-.31-.35-.66-.66-.98-1.01-.3-.34-.65-.64-.95-.98-.32-.35-.67-.67-.99-1.03-.29-.32-.61-.6-.9-.92-.32-.36-.68-.68-1-1.04-.29-.32-.61-.6-.89-.92-.31-.34-.65-.65-.96-1-.29-.33-.63-.6-.91-.94-.03-.04-.08-.07-.14-.06-.03,0-.07,0-.1,0-.66,0-1.32,0-1.98,0-.06,0-.12,0-.18,0-.04.09-.03.16-.03.24,0,.81,0,1.63,0,2.44,0,.15.02.27.17.35.04.02.07.06.1.09.35.29.7.58,1.05.86.22.18.45.37.67.55.22.19.45.37.67.56.22.18.43.36.65.55.23.19.46.37.69.56.22.18.43.37.65.55.24.2.49.4.73.6.16.13.32.27.49.4.28.24.57.47.85.71.15.13.3.26.45.38.28.23.56.46.84.69.28.24.56.48.85.71.23.19.46.37.69.56.28.24.56.48.85.71.23.19.46.37.69.56.22.18.43.37.65.55.31.26.63.52.94.78.07.06.15.1.25.1.77,0,1.55,0,2.32,0,.03,0,.06,0,.11-.01-.02-.04-.03-.07-.05-.1-.19-.2-.39-.4-.57-.6Z"/>
      <path class="cls-5" d="M43.03,71.01s-.07-.06-.11-.09c-.18-.18-.38-.33-.59-.47-.45-.31-.91-.58-1.41-.79-.29-.12-.57-.24-.86-.34-.49-.17-.98-.31-1.48-.42-.53-.11-1.05-.23-1.59-.28-.1,0-.21-.02-.31-.04-.04,0-.1,0-.1-.08.15-.08.3-.17.44-.25.24-.14.49-.27.72-.41.5-.32.97-.69,1.41-1.08.34-.31.66-.65.94-1.01.42-.53.78-1.1,1.06-1.71.07-.15.14-.31.18-.49-.04,0-.07-.02-.1-.02-.07,0-.14.02-.21.03-.45.06-.87.22-1.27.42-.28.14-.55.31-.81.5-.36.26-.69.55-1.02.85-.3.27-.56.57-.82.88-.19.23-.39.45-.57.68-.25.33-.48.66-.71,1-.09.12-.16.26-.25.38-.02.02-.03.06-.09.03,0-.06,0-.12,0-.19,0-.35,0-.7,0-1.05,0-.05,0-.1-.01-.15-.03,0-.05-.02-.07-.02-.4,0-.81,0-1.21,0-.02,0-.05.02-.08.03v.2c0,.3,0,.61,0,.91,0,.03.01.07-.05.07-.05-.06-.09-.13-.14-.2-.12-.17-.23-.34-.35-.5-.29-.4-.59-.79-.93-1.16-.18-.2-.36-.4-.54-.6-.12-.13-.26-.24-.39-.36-.18-.17-.36-.33-.55-.48-.25-.2-.51-.39-.8-.55-.3-.17-.6-.33-.92-.45-.25-.1-.51-.15-.76-.2-.09-.02-.19-.02-.3-.02,0,.05,0,.09.02.12.11.34.28.65.45.97.29.52.64,1,1.04,1.44.27.29.54.58.85.83.25.21.5.41.76.6.41.3.85.56,1.3.79.12.06.24.12.35.18.03.01.06.02.05.08-.16.02-.32.03-.48.05-.32.05-.65.1-.97.17-.34.07-.67.14-1,.23-.41.11-.81.23-1.21.39-.31.12-.61.24-.91.39-.4.19-.79.4-1.15.66-.2.14-.38.3-.57.45-.24.2-.44.44-.65.66-.02.02-.03.05-.04.07h0s.05.04.08.05c.17.06.34.06.51.03.22-.04.45-.02.67-.02.27,0,.52-.05.78-.09.05-.06.11-.04.17-.02.02,0,.04-.01.07-.02.02-.04.05-.04.08,0,.02,0,.05-.02.07-.02.04-.05.09-.04.15-.03.03,0,.07-.01.1-.02.02-.04.05-.04.09-.03.02,0,.04,0,.07-.01.02-.04.05-.05.09-.03.02,0,.04-.01.07-.02.09-.05.15-.07.28-.07.13-.04.25-.07.38-.11.06-.07.13-.09.22-.08.15-.05.3-.1.45-.16.02-.05.06-.06.1-.04.19-.08.38-.15.56-.24.34-.17.68-.34,1-.54.03-.08.1-.1.17-.1.21-.14.42-.28.62-.42.18-.13.34-.27.51-.41.17-.15.33-.31.49-.46.02-.02.05-.03.09-.05,0,.09,0,.15,0,.22,0,.56,0,1.12,0,1.69,0,.06-.02.13.03.2.03,0,.06.02.09.02.38,0,.77,0,1.15,0,.03,0,.06-.01.09-.02.03-.1.01-.19.02-.28,0-.09,0-.19,0-.28v-1.11c0-.09,0-.19,0-.28,0-.09-.01-.18.02-.29.04.03.07.04.09.06.26.26.54.5.83.73.47.38.98.71,1.52,1,.25.13.51.25.77.37.45.22.93.37,1.41.51.48.14.97.24,1.47.31.33.04.65.09.98.09.03,0,.05,0,.08,0,.22.06.45.02.67.03.09,0,.17-.03.26-.08-.14-.21-.32-.38-.49-.57-.01-.01-.03-.02-.05-.04Z"/>
      <path class="cls-5" d="M26.2,71.64h0s.05.04.08.05c-.03-.01-.05-.03-.08-.05Z"/>
      <path class="cls-5" d="M17.38,28.57c.12.11.25.17.42.17,2.19,0,4.39,0,6.58,0,.05,0,.09,0,.14,0,.04,0,.07-.01.12-.02,0-.21,0-.4,0-.6,0-.1-.03-.17-.1-.24-.26-.25-.51-.5-.76-.76-.85-.85-1.69-1.69-2.54-2.54-.08-.08-.16-.13-.28-.12-.03,0-.07,0-.1,0h-7.63c-.07,0-.13,0-.2,0-.02,0-.05,0-.07,0,0,.05.01.08.04.1.12.12.25.24.38.35.2.17.38.35.56.53.02.02.05.05.07.07.17.15.34.29.5.44.2.19.4.38.6.57,0,0,.02.02.03.03.17.15.34.29.5.44.19.18.39.36.58.54,0,0,.02.02.03.03.18.16.37.32.55.49.19.17.38.35.56.53Z"/>
      <path class="cls-5" d="M.71,10.81c.08.48.18.96.35,1.42.11.32.24.63.36.94.08.2.09.19.29.19,2.44,0,4.89,0,7.33,0,.05,0,.1,0,.19,0-.04-.1-.11-.15-.16-.21-1.62-1.62-3.24-3.24-4.86-4.86-.62-.62-1.24-1.24-1.86-1.86-.05-.05-.09-.12-.18-.13-.04.03-.08.07-.13.11-.24.21-.44.46-.62.72-.11.16-.21.33-.3.51-.15.33-.28.67-.35,1.03-.08.35-.12.71-.13,1.07,0,.21-.01.42.03.63.03.15.02.3.04.45Z"/>
      <path class="cls-5" d="M2.8,5.91c.65.64,1.28,1.31,1.96,1.93,1.95,1.95,3.91,3.91,5.86,5.86.04.04.08.08.13.12.03.02.05.04.09.02.09-.28.17-.56.27-.83.1-.27.22-.54.35-.8.13-.26.29-.5.44-.75.15-.25.34-.46.53-.69-.03-.04-.06-.07-.09-.1-.69-.71-1.41-1.39-2.09-2.11-.57-.6-1.17-1.18-1.76-1.77-.25-.25-.5-.51-.79-.72-.41-.3-.84-.54-1.33-.69-.32-.1-.65-.17-.98-.2-.35-.04-.7-.02-1.05.01-.27.03-.53.09-.79.16-.27.08-.54.17-.8.29-.03.02-.06.04-.1.07.04.09.1.14.15.19Z"/>
      <path class="cls-5" d="M67.85,28.46s-.07.04-.09.06c-.3.28-.58.59-.84.92-.42.53-.79,1.09-1.11,1.68-.22.42-.41.85-.57,1.3-.16.45-.29.9-.38,1.37-.07.36-.14.72-.14,1.09,0,.02,0,.04,0,.06-.05.13-.03.26-.03.39,0,.17,0,.34,0,.52,0,.02,0,.06-.03.06,0,0-.02-.02-.03-.03-.03-.05-.05-.09-.07-.14-.25-.52-.53-1.03-.86-1.52-.29-.44-.62-.85-.98-1.24-.2-.22-.43-.43-.66-.63-.43-.36-.9-.67-1.41-.9-.27-.12-.54-.21-.82-.3-.05-.02-.11-.02-.18-.04-.01.03-.03.05-.03.08,0,.09.02.18.03.27.08.42.22.83.39,1.22.24.52.53,1,.87,1.46.29.39.6.75.94,1.09.2.2.4.4.61.59.24.21.49.43.74.62.49.38,1,.73,1.52,1.07.03.02.07.03.1.04.28-.25.53-.51.76-.79.22-.26.41-.53.61-.8.46-.62.83-1.3,1.15-2.01.2-.45.36-.92.49-1.4.15-.55.24-1.11.27-1.67.02-.35.02-.71-.02-1.07-.03-.22-.04-.44-.08-.66-.03-.2-.08-.4-.12-.6,0-.04-.03-.07-.05-.11Z"/>
      <path class="cls-5" d="M.21,37.51c.11.5.27.98.48,1.44.28.61.6,1.19,1,1.73.3.4.62.79.96,1.15.36.37.74.72,1.14,1.04.27.22.55.43.85.62.12.08.14.07.24-.02.03-.03.06-.06.08-.08.24-.24.48-.47.7-.73.14-.16.29-.31.43-.47.21-.25.41-.51.61-.77.37-.48.69-.98.98-1.51.31-.57.57-1.16.74-1.79.14-.52.22-1.04.22-1.58,0-.11-.03-.22-.05-.34-.04.02-.07.02-.1.04-.28.14-.54.3-.8.48-.24.17-.47.36-.68.57-.09.09-.17.2-.26.29-.25.26-.45.55-.66.84-.3.44-.54.91-.76,1.39-.28.61-.49,1.24-.64,1.89-.02.07-.04.13-.06.23-.03-.07-.05-.1-.06-.14-.02-.08-.03-.16-.05-.23-.07-.34-.15-.68-.26-1.01-.1-.3-.21-.6-.34-.89-.18-.42-.4-.83-.65-1.22-.23-.36-.48-.71-.75-1.04-.24-.28-.49-.55-.74-.82-.1-.11-.22-.2-.34-.31-.12-.11-.24-.22-.37-.33-.22-.17-.44-.34-.66-.5-.12-.08-.23-.18-.39-.22,0,.05-.02.08-.02.12,0,.45,0,.9.05,1.34.03.28.1.56.16.83Z"/>
      <path class="cls-5" d="M67.11,36c-.16.18-.32.35-.46.54-.27.33-.52.68-.74,1.05-.2.33-.38.66-.54,1.01-.15.33-.29.67-.4,1.01-.15.48-.28.98-.34,1.48,0,.04,0,.08-.05.09,0,0-.02,0-.02,0-.02-.04-.04-.08-.05-.13-.12-.46-.28-.91-.45-1.35-.13-.34-.3-.66-.46-.99-.19-.39-.43-.74-.67-1.1-.2-.29-.45-.55-.68-.82-.03-.04-.08-.07-.12-.11-.04-.04-.09-.07-.14-.11-.18-.18-.38-.33-.58-.47-.2-.13-.41-.26-.62-.38-.1-.06-.2-.09-.32-.12,0,.04-.02.06-.02.08.01.28-.02.57.03.85.04.22.07.44.12.66.11.46.28.89.47,1.32.21.46.46.9.74,1.33.25.39.53.75.82,1.11.27.34.57.66.86.98.29.31.61.6.92.9,0,0,.02.01.05.02.17-.09.32-.21.48-.33.2-.15.4-.3.58-.48.17-.16.36-.31.53-.47.21-.21.41-.43.61-.65.08-.09.16-.18.23-.27.16-.2.31-.41.46-.62.28-.37.52-.76.73-1.18.1-.2.2-.4.29-.61.16-.36.29-.74.39-1.12.08-.3.14-.6.19-.91.03-.2.07-.4.07-.61.01-.38,0-.75,0-1.13,0-.03-.02-.06-.03-.11-.06.03-.1.05-.15.08-.47.32-.9.69-1.31,1.07-.15.14-.3.3-.44.46Z"/>
      <path class="cls-5" d="M5,55.21c.24.22.51.42.77.61.39.29.81.52,1.23.75.22.11.44.21.67.3.66.27,1.34.48,2.04.62.32.06.64.13.97.16.15.01.3.04.45.05.12,0,.25.02.38-.02.04-.14.09-.29.13-.43.13-.52.26-1.03.35-1.56.04-.22.09-.44.1-.66.02-.27.08-.53.07-.8,0-.04.01-.08.02-.12,0-.05.02-.1.02-.16-.02-.45.04-.9-.03-1.34.02-.16-.03-.31-.04-.47,0-.1-.02-.2-.04-.29-.07-.31-.12-.63-.22-.94-.11-.36-.25-.71-.43-1.04-.08-.14-.16-.29-.27-.41-.03,0-.04,0-.04,0-.02.02-.04.04-.05.06-.21.29-.37.61-.51.94-.27.66-.43,1.34-.46,2.05,0,.02,0,.04,0,.06-.04.1-.03.21-.03.31,0,.22,0,.44,0,.65,0,.04,0,.08,0,.12.07.19,0,.4.07.59,0,.29.07.57.12.86.07.41.17.81.29,1.21,0,.02,0,.03-.01.07-.03-.02-.05-.03-.07-.05-.11-.12-.21-.26-.32-.37-.31-.32-.61-.64-.97-.9-.24-.18-.48-.37-.73-.54-.43-.28-.88-.53-1.35-.74-.43-.19-.87-.35-1.32-.49-.57-.17-1.16-.29-1.75-.37-.13-.02-.26-.03-.39-.03-.11,0-.22,0-.33-.02-.02,0-.06,0-.07.02-.01.02,0,.05,0,.07.1.18.21.37.32.55.23.36.48.71.76,1.03.21.25.44.48.68.69Z"/>
      <path class="cls-5" d="M49.41,68.91c-.34-.22-.68-.42-1.04-.6-.49-.25-.99-.47-1.52-.63-.24-.07-.48-.16-.72-.22-.34-.08-.68-.15-1.03-.2-.32-.05-.65-.09-.98-.08-.07,0-.13-.01-.2-.01-.08,0-.16,0-.24,0-.05,0-.09.02-.14.02-.22,0-.45,0-.67.03-.23.03-.46.06-.68.1-.11.02-.22.06-.37.05.03-.03.04-.06.06-.07.28-.2.55-.4.82-.62.24-.2.48-.41.71-.63.15-.13.28-.28.4-.43.11-.13.23-.25.34-.38.38-.47.71-.97.98-1.51.28-.57.46-1.16.55-1.79.02-.11.02-.22.03-.34-.03,0-.05-.02-.07-.02-.08.02-.16.03-.23.06-.33.13-.66.27-.95.48-.23.16-.47.32-.69.5-.22.18-.43.37-.64.56-.03.03-.05.06-.08.09-.03.04-.06.09-.1.12-.21.19-.39.42-.56.64-.29.37-.56.75-.8,1.15-.2.34-.41.67-.59,1.03-.19.4-.38.8-.57,1.2-.06.13-.14.26-.15.41.04.06.1.1.16.14.14.09.28.19.43.28.22.14.45.28.68.4.29.15.59.29.89.43.51.23,1.03.41,1.57.55.61.16,1.22.28,1.85.29.03,0,.05,0,.08,0,.07,0,.14.02.21.02.18,0,.36,0,.54,0,.05,0,.11,0,.16,0,.08,0,.17-.02.25-.03.05,0,.11,0,.16,0,.19-.03.37-.07.56-.09.61-.08,1.19-.28,1.76-.51.06-.02.11-.06.19-.1-.03-.04-.06-.07-.08-.09-.09-.07-.18-.13-.27-.19Z"/>
      <path class="cls-5" d="M2.14,45.81c.38.39.75.78,1.17,1.12.28.22.56.44.86.64.28.18.57.36.86.53.15.09.31.17.47.25.11.06.23.11.34.16.11.05.22.09.33.14.03-.04.06-.06.08-.1.26-.39.53-.77.79-1.16.17-.27.33-.54.48-.82.3-.57.59-1.15.8-1.77.14-.4.27-.8.35-1.22.06-.28.11-.57.14-.85.03-.26.02-.53.05-.79,0,0,0-.01,0-.02-.05-.21,0-.42-.05-.63-.04-.15-.06-.31-.1-.46,0-.03-.03-.05-.05-.09-.06.04-.12.06-.16.1-.17.14-.34.29-.51.44-.12.11-.22.23-.32.35-.2.23-.38.47-.55.73-.2.32-.38.66-.53,1.02-.29.66-.49,1.35-.62,2.06-.05.23-.08.47-.11.7-.04.29-.05.58-.09.86,0,.03.01.06-.04.08-.01-.02-.03-.04-.04-.07-.04-.11-.08-.22-.12-.33-.19-.5-.43-.98-.71-1.43-.35-.57-.76-1.09-1.22-1.58-.21-.23-.44-.44-.68-.64-.27-.22-.54-.44-.82-.64-.56-.41-1.17-.74-1.8-1.03-.08-.04-.16-.09-.29-.08,0,.06,0,.11,0,.15.05.26.1.53.16.79.14.6.36,1.17.63,1.72.21.42.46.82.74,1.19.18.24.35.48.56.69Z"/>
      <path class="cls-5" d="M60.35,30.07c.33.27.68.52,1.03.76.23.15.47.29.71.43.67.4,1.37.73,2.1,1.02.04.01.07.02.12.03.03-.03.05-.05.07-.08.08-.11.16-.22.24-.34.18-.29.36-.58.52-.88.14-.25.26-.52.38-.78.25-.53.44-1.09.59-1.66.08-.3.14-.6.19-.91.04-.29.1-.57.1-.86,0-.03,0-.05.01-.08,0-.06.02-.13.02-.2,0-.23,0-.46,0-.69,0-.05,0-.1-.01-.16,0-.07-.02-.14-.02-.21,0-.05,0-.09,0-.14-.04-.26-.07-.52-.12-.78-.11-.57-.29-1.12-.52-1.66-.01-.03-.04-.04-.07-.08-.06.09-.12.16-.17.23-.23.34-.44.69-.63,1.05-.16.3-.3.6-.43.91-.22.53-.4,1.08-.52,1.64-.05.24-.09.49-.14.74-.04.2-.05.4-.07.61-.02.16-.02.31-.03.47,0,.3,0,.59,0,.89,0,.05,0,.09,0,.14.02.16.05.31.06.47.01.19.05.38.09.56.01.07.02.14.03.21-.01,0-.03.01-.04.02,0-.02-.02-.04-.03-.05-.15-.2-.29-.41-.45-.6-.19-.24-.38-.47-.58-.69-.15-.16-.31-.31-.46-.46-.24-.24-.49-.46-.76-.66-.49-.38-1.02-.71-1.59-.96-.55-.24-1.12-.37-1.71-.45-.03,0-.07,0-.1,0-.07,0-.09.04-.07.11.06.2.13.39.22.57.16.33.35.64.56.93.19.26.39.51.62.75.28.29.58.58.9.84Z"/>
      <path class="cls-5" d="M57.96,25.34c.52.35,1.07.63,1.63.89.42.19.85.36,1.29.5.19.06.39.13.58.18.41.11.83.21,1.24.32.04.01.09,0,.14,0,.1-.18.18-.36.26-.54.21-.49.38-1,.52-1.52.08-.29.14-.59.2-.89.06-.3.1-.61.13-.92.02-.22.03-.43.03-.65,0-.25,0-.5,0-.75,0-.05,0-.09,0-.14-.05-.26-.06-.52-.09-.78-.05-.45-.17-.88-.3-1.31-.17-.57-.42-1.11-.72-1.62-.08-.13-.16-.26-.24-.38-.02-.03-.05-.05-.09-.07-.11.2-.21.4-.29.6-.25.61-.43,1.23-.57,1.87-.08.35-.12.71-.17,1.07-.03.22-.03.45-.03.67,0,.54-.02,1.08.06,1.62.05.32.1.64.18.95.1.4.22.8.37,1.19.01.03.01.07.02.13-.05-.04-.09-.06-.11-.08-.23-.24-.49-.46-.74-.68-.28-.24-.57-.47-.88-.67-.45-.31-.92-.59-1.43-.81-.34-.15-.68-.28-1.04-.38-.26-.07-.52-.13-.79-.16-.24-.03-.48-.06-.73-.06-.2,0-.39.02-.59.05,0,0-.02.02-.03.03,0,.02,0,.04.01.05.16.37.39.69.66.98.15.16.3.33.47.48.33.31.68.58,1.06.83ZM62.13,25.76h0s-.01.01-.01.01h0Z"/>
      <path class="cls-5" d="M1.25,29.41c-.06-.06-.13-.12-.22-.16-.02.03-.03.04-.03.06-.02.11-.05.22-.07.33-.06.34-.11.68-.11,1.02,0,.11,0,.22-.02.33-.01.05,0,.1,0,.16,0,.05.01.09.02.14,0,.2,0,.41.03.61.03.27.07.53.12.8.07.36.17.7.28,1.05.1.31.23.62.36.92.15.35.33.68.52,1,.16.26.32.52.49.77.17.24.36.47.54.71.15.19.3.37.47.53,0,0,.02.02.03.03.14.2.32.36.52.51.03.02.06.04.1.06.25-.15.48-.31.71-.48.39-.29.77-.57,1.13-.9.16-.14.32-.27.47-.42.33-.32.65-.65.95-1.01.31-.36.59-.74.84-1.15.21-.34.4-.68.55-1.05.19-.46.33-.93.39-1.43,0-.04,0-.09-.01-.14-.03,0-.05,0-.07,0-.41.14-.81.28-1.19.49-.54.3-1,.68-1.45,1.09-.16.15-.31.31-.44.48-.26.32-.51.63-.73.98-.19.29-.37.59-.54.9-.17.31-.32.64-.46.96,0,.02-.03.03-.07.08,0-.23,0-.42,0-.61,0-.08,0-.16,0-.24-.02-.17-.05-.34-.06-.51-.03-.35-.11-.7-.19-1.05-.11-.43-.24-.85-.41-1.26-.2-.49-.43-.97-.7-1.42-.16-.26-.33-.53-.51-.78-.17-.24-.35-.46-.54-.68-.09-.11-.19-.2-.27-.31-.12-.17-.28-.3-.42-.44Z"/>
      <path class="cls-5" d="M9.86,29.33c.28-.37.52-.76.71-1.19.08-.19.15-.4.22-.6.03-.08-.01-.13-.1-.12-.1.01-.21.02-.31.04-.37.06-.73.16-1.09.3-.2.08-.4.16-.6.26-.33.18-.65.37-.96.59-.37.26-.7.56-1.03.86-.15.13-.27.29-.4.43-.18.18-.34.38-.5.59-.21.28-.41.56-.62.84-.02.02-.04.04-.06.06.03-.4.1-.79.09-1.18,0-.01,0-.03,0-.04.05-.13.03-.26.03-.39,0-.15.03-.31,0-.45-.05-.21,0-.42-.06-.63,0-.28-.07-.56-.12-.84-.07-.35-.16-.69-.26-1.03-.14-.46-.32-.91-.52-1.35-.16-.34-.33-.67-.53-1-.18-.3-.37-.59-.59-.87-.02-.03-.04-.07-.1-.05-.01.02-.03.05-.05.08-.15.4-.3.8-.38,1.23-.03.17-.07.35-.1.52-.05.29-.09.58-.09.88,0,.11,0,.22-.03.33-.02.07-.02.15,0,.22.03.1.02.2.03.29,0,.1,0,.2,0,.3.03.26.06.52.1.78.05.27.1.54.17.81.1.37.21.74.35,1.09.13.33.26.65.41.96.11.21.22.42.33.63.24.43.5.84.8,1.23.03.03.06.06.1.09.23-.1.45-.2.67-.3.39-.19.76-.39,1.14-.6.47-.27.92-.57,1.36-.88.32-.23.62-.47.9-.73.39-.36.76-.75,1.08-1.18Z"/>
      <path class="cls-5" d="M28.29,68.76c.36-.2.71-.43,1.05-.67.07-.05.13-.1.18-.18,0-.03,0-.06-.02-.08-.05-.12-.1-.23-.15-.34-.23-.46-.46-.92-.71-1.37-.29-.52-.62-1.02-.98-1.49-.26-.34-.52-.67-.82-.96-.04-.04-.07-.08-.1-.12-.03-.03-.05-.06-.08-.09-.06-.05-.12-.1-.18-.16-.07-.07-.14-.15-.21-.21-.3-.25-.61-.5-.95-.71-.33-.21-.68-.38-1.05-.51-.08-.03-.16-.05-.25-.06-.05-.01-.09.03-.09.08,0,.01,0,.03,0,.04.03.19.06.38.1.56.08.42.22.81.4,1.2.2.43.44.84.73,1.22.25.34.51.67.82.96.2.19.39.39.6.57.18.15.36.3.55.45.24.19.5.37.76.54.02.01.03.04.06.08-.25-.03-.47-.06-.69-.09-.18-.02-.35-.06-.53-.06-.55,0-1.09-.03-1.64.06-.25.04-.5.06-.74.11-.52.11-1.04.25-1.54.44-.5.19-.99.4-1.46.67-.34.19-.66.39-.98.6-.11.08-.23.16-.33.28.05.03.09.05.12.06.28.1.56.2.84.29.34.11.69.17,1.04.22.24.03.48.07.73.07.4,0,.79.02,1.19-.02.29-.03.58-.06.86-.11.58-.11,1.15-.27,1.71-.48.6-.23,1.18-.5,1.74-.81Z"/>
      <path class="cls-5" d="M59.18,54.8c.04-.19.05-.38.09-.56.03-.19.07-.39.06-.59,0-.03,0-.05.01-.08,0-.06.02-.13.02-.19-.01-.48.04-.96-.03-1.44-.02-.13-.02-.26-.04-.39-.09-.51-.21-1.01-.4-1.48-.14-.35-.33-.68-.53-.99-.04-.07-.09-.13-.16-.17-.02.02-.04.04-.05.06-.12.18-.23.37-.32.57-.09.2-.17.4-.23.61-.07.21-.11.43-.17.65-.07.23-.09.47-.11.7-.02.21-.06.43-.04.65,0,.03,0,.05,0,.08-.04.1-.03.21-.03.31,0,.18,0,.37.03.55.03.2,0,.41.04.61.03.16.03.33.05.49.02.17.05.34.08.51.06.31.11.62.18.93.11.45.23.89.36,1.34.02.07.05.13.08.2.14,0,.27.01.4,0,.32-.04.64-.08.95-.15.4-.08.8-.18,1.19-.29.57-.17,1.12-.39,1.66-.64.24-.12.48-.25.71-.39.49-.29.95-.62,1.37-1,.27-.24.53-.5.76-.78.28-.34.54-.7.77-1.07.13-.21.25-.43.36-.68-.1-.04-.18-.03-.26-.03-.2.02-.39.03-.59.07-.34.06-.69.13-1.02.21-.42.1-.83.23-1.23.39-.25.1-.5.21-.74.32-.24.11-.47.24-.7.37-.39.22-.77.47-1.11.75-.19.16-.39.31-.57.48-.18.16-.34.33-.5.5-.15.17-.29.34-.43.52-.02.02-.05.02-.1.04.02-.1.03-.17.05-.24.06-.24.12-.49.16-.73Z"/>
      <polygon class="cls-5" points="9.17 21.72 9.17 21.71 9.17 21.71 9.17 21.71 9.17 21.72"/>
      <path class="cls-5" d="M9.5,21.03c.15-.29.27-.6.38-.91.15-.4.26-.82.35-1.24.04-.21.09-.41.11-.62.03-.29.08-.59.07-.88,0-.03,0-.06,0-.08.03-.08.03-.17.03-.25,0-.23,0-.46-.03-.69-.03-.18-.01-.37-.03-.55-.02-.24-.05-.47-.09-.7-.04-.23-.09-.45-.13-.68-.04-.23-.11-.45-.18-.67,0-.03-.04-.05-.06-.07-.12.06-.17.16-.24.24-.2.23-.38.47-.55.72-.29.41-.52.86-.72,1.32-.27.62-.46,1.26-.57,1.93-.04.21-.08.43-.09.64-.01.22-.06.44-.04.67,0,.05,0,.11,0,.16,0,.08-.02.16-.02.24-.01.18.02.35.03.53,0,.3.04.6.07.9.03.29.07.57.13.86.06.32.14.63.22.94.02.09.05.19.12.28.07,0,.14,0,.21-.01.06,0,.12-.02.18-.02.16-.01.33-.02.49-.03.1,0,.21-.02.31-.03.32-.05.65-.11.97-.16.57-.09,1.14-.23,1.69-.41.62-.2,1.22-.44,1.78-.76.3-.17.59-.36.87-.55.16-.11.3-.25.46-.38.24-.2.43-.44.61-.69.02-.03.03-.07.05-.11-.04-.02-.06-.04-.09-.04-.07-.02-.14-.03-.21-.04-.34-.07-.69-.12-1.04-.12-.21,0-.42,0-.63.03-.32.03-.64.09-.95.16-.63.14-1.22.37-1.81.64-.46.21-.89.47-1.31.74-.19.12-.37.26-.55.38-.02.02-.05.04-.08.02,0,0,0,0,0,0,0,0,0,0,0,0v.02s-.02,0-.02-.01c0,0,.02,0,.02-.01,0,0,0,0,0,0,0,0,0,0,0,0-.02-.06.02-.1.04-.14.09-.18.19-.36.29-.54Z"/>
      <path class="cls-5" d="M14.94,15.01s.06.02.09.03c.4.1.8.21,1.21.31.25.06.5.1.76.14.25.04.51.08.76.11.2.02.39.05.59.05.05,0,.09,0,.14.01.08,0,.16.02.23.02.43-.01.86.04,1.28-.03.25,0,.49-.03.73-.07.28-.05.55-.11.83-.18.51-.14,1-.33,1.45-.62.06-.04.13-.08.17-.17-.1-.06-.19-.12-.27-.17-.31-.2-.64-.36-.99-.48-.4-.14-.8-.25-1.22-.31-.25-.04-.51-.08-.76-.08-.39,0-.78-.02-1.17.01-.26.02-.52.04-.78.08-.5.07-1,.18-1.48.33-.06.02-.12.04-.2.02.01-.07.06-.11.1-.14.15-.13.31-.26.46-.4.27-.27.52-.56.76-.86.35-.44.66-.91.92-1.4.21-.39.39-.79.54-1.21.22-.59.4-1.19.51-1.8.04-.21.06-.43.1-.64.04-.24.07-.48.06-.73,0-.03,0-.06-.01-.11-.12.01-.2.06-.27.11-.65.37-1.24.82-1.78,1.34-.02.02-.05.05-.07.07-.13.15-.27.31-.4.46-.2.22-.38.46-.54.71-.14.22-.28.43-.4.66-.21.37-.4.74-.55,1.14-.12.32-.24.64-.34.97-.09.29-.16.6-.23.9-.08.35-.14.71-.19,1.07-.02.14-.03.27-.04.41,0,.12.01.25-.03.37-.02.04.01.08.05.09ZM16.25,14.03s0,0,.01.01c-.01,0-.02.01-.03.01,0,0,0,0-.01-.01.01,0,.02,0,.03-.01Z"/>
      <path class="cls-5" d="M67.69,46.51c-.45.12-.88.29-1.3.48-.35.16-.68.34-1.02.53-.33.18-.65.4-.96.63-.18.14-.37.28-.54.43-.16.15-.34.29-.5.45-.1.1-.19.22-.29.32-.16.15-.29.32-.43.49-.33.41-.63.85-.87,1.32-.02.04-.05.08-.07.11-.06,0-.06-.04-.05-.07.03-.23.06-.47.05-.71,0-.38.01-.76-.02-1.15-.03-.27-.04-.55-.08-.82-.09-.57-.21-1.14-.42-1.68-.14-.35-.28-.7-.47-1.02-.25-.42-.54-.81-.9-1.15-.03-.02-.06-.04-.09-.06-.1.18-.21.47-.26.7-.1.43-.17.86-.16,1.31,0,.25,0,.5,0,.75,0,.16.02.33.04.49.01.12.05.23.06.35.02.27.08.53.15.79.13.52.26,1.04.46,1.53.13.33.26.66.4.99.07.16.15.32.22.49.1.2.19.41.29.61.03.06.07.11.11.16.05,0,.08,0,.11-.02.44-.1.86-.24,1.28-.41.27-.11.53-.23.8-.35.25-.11.48-.24.72-.37.34-.19.67-.4.98-.63.36-.26.7-.54,1.02-.84.27-.25.51-.52.74-.8.22-.28.44-.56.62-.87.18-.29.34-.59.49-.91.16-.35.29-.72.41-1.09,0-.03,0-.07-.02-.12-.17.05-.32.09-.47.13Z"/>
      <path class="cls-5" d="M11.68,13.69c-.15.41-.26.83-.34,1.26-.07.36-.13.72-.18,1.09-.03.19-.02.39-.03.59,0,.03,0,.07,0,.1-.04.11-.03.22-.03.33,0,.2,0,.4,0,.59,0,.05,0,.09,0,.14.06.23.01.46.06.69.02.09.02.19.07.28.23.03.46.06.69.07.05,0,.11,0,.16,0,.09.03.18.02.27.03.16,0,.33-.02.49.03.02,0,.05,0,.08,0,.24,0,.49,0,.73,0,.05,0,.09,0,.14-.01.06,0,.13-.03.19-.02.24.02.47-.03.71-.04.24-.01.47-.05.7-.09.3-.05.6-.11.89-.18.47-.12.92-.27,1.37-.46.5-.22.96-.49,1.38-.84.09-.08.17-.16.25-.26-.02-.02-.03-.04-.04-.04-.03-.02-.07-.04-.1-.05-.42-.17-.86-.31-1.31-.38-.19-.03-.38-.07-.57-.07-.39,0-.78-.02-1.17.02-.29.04-.59.07-.88.13-.34.07-.67.15-1,.25-.36.11-.71.24-1.06.39-.22.09-.43.19-.65.29-.03.01-.07.02-.11.03,0-.08.04-.12.08-.17.26-.3.48-.63.7-.96.22-.34.4-.7.57-1.06.16-.35.29-.72.41-1.09.14-.45.25-.91.33-1.38.03-.18.05-.37.08-.55.03-.19.04-.38.05-.57,0-.12-.01-.25,0-.38.02-.11.03-.22.02-.33,0-.11-.03-.22-.03-.33,0-.22,0-.45-.03-.67-.01-.1-.03-.2-.06-.31-.05.03-.1.04-.13.07-.18.15-.37.3-.54.47-.21.21-.43.41-.62.64-.18.21-.35.43-.51.66-.27.39-.5.81-.7,1.24-.14.28-.25.57-.35.86ZM12.37,17.56s0,0,.01.01c0,0,0,0-.01,0,0,0,0,0-.01-.01,0,0,0,0,.01,0Z"/>
      <path class="cls-5" d="M3.72,51.11c.29.25.59.48.92.68.29.18.58.37.88.53.32.17.65.32.98.46.57.25,1.16.43,1.76.58.06.01.12.02.18.02.02-.03.04-.06.06-.09.08-.17.15-.34.24-.5.17-.35.31-.71.46-1.07.19-.48.35-.97.48-1.47.1-.37.19-.74.25-1.12.05-.34.11-.69.1-1.04,0-.05,0-.09.01-.14.04-.21.03-.42,0-.63,0-.1-.02-.2-.02-.29,0-.05,0-.09,0-.14-.04-.27-.07-.53-.13-.8-.06-.28-.15-.56-.28-.82-.02-.03-.05-.06-.07-.09-.15.14-.28.28-.4.43-.35.43-.62.9-.83,1.41-.18.45-.33.91-.42,1.38-.05.25-.09.5-.12.76-.02.13,0,.27-.03.39-.02.12-.03.24-.03.35,0,.19,0,.38,0,.58,0,.31-.03.62.03.93,0,.02,0,.04,0,.06,0,.08.02.16.02.23,0,.06.02.11,0,.16-.05,0-.06-.02-.07-.04-.09-.15-.18-.31-.28-.46-.19-.29-.39-.57-.61-.83-.15-.17-.28-.35-.44-.5-.19-.19-.38-.38-.59-.56-.29-.25-.59-.49-.9-.7-.57-.39-1.17-.72-1.8-1-.6-.26-1.22-.47-1.86-.61-.02,0-.04,0-.05.01-.04.07,0,.13.02.19.14.4.3.79.5,1.16.2.39.43.76.69,1.11.16.21.33.41.5.61.26.31.56.58.86.84Z"/>
      <path class="cls-5" d="M21.05,67.73c.32-.06.64-.11.95-.2.38-.1.75-.22,1.11-.35.42-.15.84-.33,1.23-.53.03-.01.05-.04.07-.06,0-.03,0-.05,0-.07-.12-.49-.25-.97-.41-1.45-.06-.18-.12-.36-.19-.54-.13-.34-.26-.68-.41-1.01-.21-.45-.43-.91-.71-1.33-.16-.24-.31-.49-.49-.72-.28-.36-.57-.71-.91-1.01-.15-.14-.31-.26-.47-.39-.04-.03-.09-.06-.14-.06-.22,0-.45,0-.67,0-.01,0-.02.01-.04.02,0,.02-.01.04-.01.07-.02.23.01.46.04.69.04.29.09.57.18.85.11.38.25.75.42,1.11.24.5.52.96.84,1.41.17.23.34.45.52.67.12.14.23.29.36.42.17.19.36.37.54.55.01.01.03.02.05.03.05,0,.09.02.11.07,0,0,0,.03,0,.04,0,0-.02.02-.03.02-.07-.02-.16-.02-.21-.09l-.37-.12c-.09.01-.16,0-.22-.07l-.21-.05s-.08.02-.11-.03c-.28-.09-.56-.13-.85-.17-.06,0-.12.02-.18,0-.12-.03-.25-.03-.37-.04-.03,0-.05-.03-.07-.05-.04,0-.08-.01-.12-.01-.43,0-.86,0-1.3,0-.04,0-.08,0-.12.01-.02.02-.04.05-.06.05-.17.02-.34.03-.51.04-.03,0-.06,0-.1-.01-.11.01-.22.02-.33.05-.13.03-.27.06-.4.09-.03.03-.06.04-.09,0-.02,0-.05.02-.07.02-.02.04-.05.06-.09.02-.35.08-.69.18-1.02.29-.02.05-.06.06-.1.04-.29.12-.58.23-.86.35-.11.05-.22.1-.32.16-.03.02-.05.05-.08.08.03.03.04.05.06.06.36.22.73.42,1.12.59.41.18.84.33,1.27.43.25.06.5.12.76.15.2.02.39.05.59.07.2.02.39.02.59.03.17,0,.34,0,.52,0,.2,0,.41-.02.61-.04.24-.02.47-.06.7-.1Z"/>
      <path class="cls-5" d="M54.79,65.97c-.31-.15-.63-.28-.95-.39-.49-.17-.98-.31-1.49-.41-.31-.06-.62-.11-.93-.15-.18-.02-.35-.03-.53-.04-.37,0-.74,0-1.11,0-.05,0-.09,0-.14,0-.18.02-.35.05-.53.07-.34.04-.68.1-1.01.18-.39.1-.77.22-1.15.37-.03.01-.06.01-.1.02.02-.04.02-.05.03-.07.12-.13.24-.27.36-.39.17-.17.33-.36.48-.55.42-.5.79-1.04,1.1-1.62.32-.59.57-1.21.71-1.86.05-.23.09-.46.12-.7.02-.16.01-.33.02-.5-.04,0-.08-.02-.13-.02-.29,0-.58-.01-.87.03-.1.02-.19.04-.26.12-.23.23-.45.46-.65.71-.44.54-.8,1.13-1.12,1.75-.07.14-.13.29-.2.43-.19.37-.34.76-.47,1.15-.15.45-.29.9-.42,1.36-.08.28-.14.57-.2.86.05.07.12.09.19.12.06.03.12.05.18.08.57.26,1.15.46,1.75.61.33.09.66.17,1,.22.21.03.43.07.65.08.2,0,.39.06.59.06.53,0,1.07.02,1.6-.06.3-.04.6-.08.89-.15.57-.13,1.12-.32,1.64-.57.17-.08.33-.17.49-.25.2-.11.38-.23.57-.35.01,0,.02-.03.03-.05-.03-.06-.09-.08-.14-.1Z"/>
      <path class="cls-5" d="M15.36,59.79c0-.31,0-.61,0-.92,0-.02.01-.05.02-.07,0-.18,0-.37-.01-.55-.04-.02-.07-.04-.02-.09v-.31s-.06-.05-.06-.08c-.03-.18-.05-.36-.07-.54,0-.05,0-.1,0-.16-.02-.1-.03-.2-.05-.31-.04-.02-.06-.04-.02-.08,0-.02,0-.05,0-.07-.05-.03-.06-.04-.03-.09,0-.02,0-.05-.01-.07-.01,0-.03-.01-.03-.02-.03-.09-.08-.18-.05-.28,0-.02,0-.04,0-.07-.05-.03-.05-.09-.07-.13-.04-.12-.08-.25-.12-.37,0-.01,0-.03.01-.05l-.06-.15c-.07-.06-.08-.14-.08-.22-.03-.06-.05-.12-.08-.18-.01-.01-.03-.02-.04-.04-.09-.18-.19-.37-.28-.56,0-.02,0-.04,0-.06-.09-.16-.17-.33-.3-.46-.05,0-.07-.04-.06-.09-.09-.1-.17-.2-.26-.31-.05-.04-.1-.07-.16-.11-.08.05-.09.13-.13.2-.02.04-.01.09-.07.11l-.04.1c-.02.17-.07.32-.13.48,0,0-.02.01-.03.02v.07c.03.09,0,.17-.06.24,0,.04,0,.07,0,.11,0,.05,0,.1,0,.16,0,.09-.02.18-.03.27,0,.04,0,.08-.05.1,0,.06-.01.12-.01.17,0,.27,0,.53,0,.8,0,.06,0,.12.01.17.01.01.04.03.04.04.02.16.03.31.04.47,0,.02,0,.04,0,.06.01.08.03.17.04.25.06.05.06.1.03.17.02.09.04.18.06.27,0,0,.03.01.03.02.03.13.06.26.08.4,0,.02,0,.04,0,.07.03.02.05.05.03.09.02.06.03.12.05.17.07.09.11.19.1.31,0,.02.01.04.02.06.03.03.05.06.06.1s.01.07,0,.11c.01.03.03.06.04.1.1.15.16.32.2.49.06.18.14.34.23.5.08.06.1.14.12.22-.04.04-.08.03-.11,0-.04-.05-.08-.1-.12-.14-.03-.02-.06-.05-.09-.07-.17-.14-.34-.29-.53-.4-.05,0-.08-.01-.09-.06-.05-.03-.1-.07-.15-.1-.05,0-.08-.02-.09-.06,0,0-.02-.01-.03-.02-.05,0-.08-.02-.09-.06-.04-.02-.07-.04-.11-.06-.07,0-.14-.03-.17-.1-.04-.02-.07-.04-.11-.06-.04,0-.07-.01-.09-.06-.02-.01-.04-.02-.06-.03-.05.01-.08,0-.1-.05-.02,0-.04-.02-.06-.03-.19-.05-.38-.12-.53-.24-.03-.01-.06-.03-.1-.04-.04.01-.08,0-.1-.04l-.1-.04s-.08,0-.1-.04c-.02,0-.05-.01-.07-.02-.02,0-.04.02-.05.01-.3-.11-.6-.21-.91-.28-.02,0-.03-.03-.04-.04-.02,0-.05,0-.07-.01-.04.04-.07.02-.09-.02-.07-.01-.14-.03-.22-.04-.04.02-.07,0-.09-.03-.02,0-.05,0-.07,0-.14.02-.28-.04-.42-.05,0,0-.02-.02-.03-.03-.06,0-.12-.01-.18-.02-.05.03-.08.01-.11-.03-.09,0-.18-.01-.27-.02-.14.04-.29.02-.43,0-.08,0-.16-.02-.23-.03-.2,0-.41,0-.61,0-.11,0-.22,0-.33.03-.12.02-.25.03-.37,0-.08,0-.15,0-.23.01-.01.01-.02.03-.04.04-.04.02-.05.05-.05.09.02.02.04.05.06.07.07.04.13.08.14.17.05.1.14.16.21.23.05,0,.08.03.07.09.21.25.46.46.71.67.02,0,.06,0,.07.02.05.05.1.1.14.16.11.09.23.17.34.26.05,0,.08.01.09.06,0,0,.02.01.03.02.05,0,.08.01.09.06,0,0,.02.01.03.02.05,0,.08.01.09.06.04.02.07.04.11.06.07,0,.14.02.17.1,0,0,.01.01.02.02.05-.01.08,0,.1.05.04.02.07.04.11.06.1.02.18.06.25.13.02,0,.04.02.06.03.05-.01.08,0,.1.05.06.02.12.05.18.07.07,0,.13.02.18.08.03.02.06.03.09.05.05-.02.08,0,.1.04.1.04.2.07.3.11,0,0,.01,0,.02,0,.17.03.33.08.48.16.05.01.09.03.14.04.1,0,.2,0,.29.08.02,0,.04,0,.06.01.05-.03.08,0,.1.03.02,0,.05,0,.07.01,0,0,.01-.01.02-.01.11,0,.21.02.31.08.05,0,.1.01.15.02.11-.01.2,0,.28.05.05,0,.1,0,.15,0,.04-.02.07,0,.09.03h.19c.14,0,.27,0,.41.03.11.02.22,0,.33.01.13,0,.26,0,.39.03.14.02.29.02.43,0,.09-.01.18-.02.27-.03.18,0,.35,0,.53-.03.07-.02.16,0,.23,0,.05,0,.1-.01.14-.02.02-.15.03-.3.05-.44,0-.02.02-.03.04-.04,0-.13.01-.26.02-.39-.04-.04-.01-.07.02-.09,0-.2,0-.39.01-.59,0-.02-.02-.05-.02-.07Z"/>
      <path class="cls-5" d="M11.64,25.26c.05-.04.1-.09.15-.13.17-.14.31-.3.44-.48-.02-.03-.04-.05-.07-.08-.04-.03-.09-.06-.12-.1-.27-.26-.54-.52-.81-.78-.03-.03-.06-.05-.09-.08-.06.01-.11.02-.16.03-.39.12-.78.26-1.14.44-.53.26-1.03.56-1.51.91-.47.35-.92.73-1.33,1.15-.07.08-.15.15-.23.22-.02.02-.04.02-.06.03,0,0,0,0,0,0,0,0,0,0,0,0,0,0,0,.02-.01.02,0,0,0-.01-.01-.02,0,0,.01,0,.02,0,0,0,0,0,0,0,0,0,0,0,0,0-.02-.06,0-.11.02-.16.14-.41.27-.83.35-1.26.07-.37.14-.74.15-1.11,0-.03,0-.05,0-.08.04-.1.03-.21.03-.31,0-.26,0-.52,0-.77,0-.05,0-.1,0-.14-.06-.18-.03-.37-.05-.55-.03-.28-.08-.56-.13-.84-.06-.3-.12-.59-.21-.88-.08-.27-.17-.54-.27-.81-.02-.05-.06-.1-.1-.14-.1-.09-.21-.18-.32-.26-.13-.11-.27-.21-.4-.32-.02.02-.05.03-.05.04-.21.38-.38.78-.51,1.2-.09.26-.15.53-.21.8-.06.28-.11.57-.15.85-.03.19-.02.39-.04.59,0,.05,0,.09-.01.14,0,.07-.02.13-.02.2,0,.15,0,.3,0,.46,0,.05,0,.1,0,.14.04.1.03.21.03.31,0,.07,0,.13,0,.2.03.23.07.45.09.68.04.35.12.69.19,1.03.08.37.18.73.3,1.09.11.33.24.66.37.98.06.16.14.31.24.46.07-.02.14-.03.2-.04.28-.08.56-.16.84-.24.45-.13.89-.28,1.33-.45.23-.09.46-.2.69-.3.37-.15.71-.35,1.06-.54.4-.23.78-.49,1.15-.78.12-.1.24-.2.36-.31Z"/>
      <polygon class="cls-5" points="6.71 26.4 6.71 26.4 6.71 26.39 6.71 26.39 6.71 26.4"/>
      <path class="cls-5" d="M19.31,11.98c.29.14.57.28.86.4.28.12.57.23.86.35.48.19.97.34,1.47.46.43.11.87.19,1.32.25.31.04.62.05.95.07.02-.13.05-.25.05-.39,0-.36,0-.73,0-1.09,0-.09.01-.18.02-.28,0-.08.02-.16-.02-.24-.04-.01-.07-.03-.11-.04-.13-.03-.27-.06-.4-.1-.35-.09-.7-.14-1.05-.17-.25-.03-.51-.05-.77-.04-.32.01-.65,0-.97,0-.1,0-.2.02-.29.02-.15.01-.3.03-.45.04-.02,0-.04,0-.1-.02.05-.04.07-.07.1-.08.7-.38,1.31-.88,1.89-1.43.12-.12.24-.25.35-.38.16-.18.32-.37.47-.56.25-.31.48-.65.68-.99.14-.24.29-.49.41-.75s.23-.52.34-.78c.19-.44.33-.9.45-1.37.02-.09.05-.17.03-.28-.05,0-.08,0-.12.02-.37.11-.72.26-1.07.42-.48.23-.94.52-1.36.84-.2.15-.4.31-.58.48-.32.31-.64.63-.92.98-.21.26-.4.52-.58.8-.17.25-.31.52-.46.78-.2.33-.35.68-.5,1.03-.25.58-.45,1.18-.59,1.8-.03.14-.04.15.08.2Z"/>
      <path class="cls-5" d="M43.18,5.4c.1.33.24.64.39.95.28.61.62,1.2,1.02,1.74.21.28.43.57.67.83.33.35.67.69,1.05.99.39.3.78.58,1.21.82.06.03.12.07.19.14-.26-.02-.5-.03-.74-.07-.24-.04-.49-.02-.73-.02-.25,0-.5.03-.75.07-.24.03-.48.08-.72.14-.24.06-.47.11-.69.21,0,.04-.01.07-.01.09,0,.61,0,1.22,0,1.82,0,.04.02.07.03.11.05,0,.09,0,.13.01.33,0,.66-.04.98-.09.62-.1,1.22-.27,1.81-.5.38-.15.76-.31,1.13-.48.34-.16.68-.33,1.01-.5.05-.03.11-.04.15-.12-.07-.24-.14-.49-.22-.74-.14-.44-.31-.87-.5-1.29-.26-.57-.57-1.11-.93-1.63-.32-.47-.67-.91-1.08-1.31-.2-.2-.4-.4-.62-.58-.29-.24-.59-.46-.91-.66-.36-.22-.73-.42-1.12-.58-.26-.11-.52-.2-.78-.29-.07-.02-.13-.05-.22-.02.01.06.02.12.03.18.08.27.17.53.24.79Z"/>
      <path class="cls-5" d="M15.4,64.9c.11.02.21.03.31.02.45-.01.9.02,1.34-.03.26-.03.52-.04.78-.08.48-.07.95-.16,1.41-.29.12-.03.24-.06.36-.13,0-.03.02-.07.02-.1-.01-.18-.03-.35-.04-.53,0-.1-.02-.21-.03-.31-.03-.22-.06-.44-.09-.66-.03-.23-.07-.46-.11-.68-.07-.34-.14-.68-.25-1.02-.09-.28-.17-.57-.26-.85-.02-.07-.06-.14-.09-.21-.19-.03-1.38-.04-2.07-.02-.04,0-.08,0-.13.02.01.06.01.11.03.16.38,1.18.96,2.25,1.7,3.25,0,0-.02.02-.03.03-.02,0-.05-.01-.07-.02-.29-.17-.58-.32-.88-.46-.44-.2-.9-.35-1.36-.48-.33-.09-.67-.16-1-.21-.34-.06-.69-.07-1.04-.12-.41.02-.83-.04-1.24.03-.03,0-.07,0-.1,0-.17.01-.34.02-.51.04-.37.05-.74.1-1.11.19-.22.06-.45.12-.67.19-.09.03-.1.08-.03.14.11.09.22.18.33.28.42.36.89.66,1.38.92.35.18.72.34,1.09.46.44.15.89.28,1.36.35.19.03.39.07.58.09.14.01.28,0,.41.04Z"/>
      <path class="cls-5" d="M57.29,61.79c-.08-.07-.18-.11-.29-.1-.05,0-.11,0-.16,0-.2-.04-.4-.01-.61,0-.34.01-.68.03-1.02.07-.18.02-.35.05-.53.08-.34.06-.67.15-1,.24-.41.12-.81.27-1.2.45-.34.15-.66.33-.98.53-.02.01-.04.03-.07,0,.02-.04.04-.08.07-.11.3-.41.56-.85.79-1.3.11-.21.21-.43.3-.65.1-.24.2-.49.28-.74.04-.11.08-.22.09-.35-.08,0-.14,0-.21,0-.47,0-.94,0-1.41,0-.1,0-.2-.02-.29-.02-.09,0-.18-.02-.27,0-.08.09-.08.21-.12.32-.15.46-.24.93-.33,1.4-.06.34-.11.67-.14,1.01-.01.12-.02.25-.03.37-.02.19-.04.38-.06.57,0,.13,0,.26,0,.4,0,.04.01.08.01.11.02.01.03.02.04.03.03.01.06.02.09.03.75.19,1.51.34,2.29.36.03,0,.06,0,.1.01.07,0,.13.02.2.02.38-.01.75.01,1.13-.03.24-.03.48-.04.73-.07.41-.05.82-.13,1.22-.25.2-.06.4-.13.6-.19.46-.14.88-.36,1.3-.58.24-.13.46-.29.69-.43.03-.02.06-.05.1-.08-.06-.05-.1-.1-.15-.14-.39-.31-.78-.63-1.17-.94Z"/>
      <path class="cls-5" d="M10.6,63.77c-.16-.12-.31-.27-.47-.39-.24-.19-.44-.41-.62-.66-.02-.03-.04-.07-.06-.11.21-.13.42-.22.63-.3.22-.08.45-.16.68-.22.22-.06.44-.11.67-.16-.01-.02-.02-.04-.02-.05-.43-.1-.86-.21-1.28-.31-.07.08-.12.15-.19.22-.2.21-.4.4-.59.62-.21.24-.45.45-.65.69-.19.21-.4.4-.59.62-.2.23-.44.44-.64.67-.19.22-.41.41-.6.63-.2.23-.44.44-.64.67-.19.22-.41.42-.61.65-.3.33-.62.65-.93.97-.17.18-.34.35-.5.53-.02.02-.04.05-.06.08-.08.15-.16.3-.21.47-.06.23-.09.47-.02.7.08.26.22.47.5.54.12.03.24.06.37.07.1,0,.2-.01.29-.04.24-.06.46-.16.64-.33.11-.11.23-.21.35-.32.12-.11.25-.21.38-.32.12-.11.24-.22.37-.33.1-.09.21-.18.31-.27.2-.18.41-.35.61-.53.13-.11.25-.23.38-.34.1-.09.2-.17.3-.26.12-.11.25-.21.37-.32s.24-.22.37-.33c.22-.19.44-.37.66-.57.21-.19.42-.38.63-.57.1-.09.2-.17.3-.26.2-.18.41-.35.61-.53.01-.01.01-.03.02-.06-.05-.04-.11-.07-.16-.11-.2-.15-.41-.29-.61-.44Z"/>
      <path class="cls-5" d="M24.13,9.25c-.06.13-.12.26-.15.39.05.12.14.13.24.13.44,0,.89,0,1.33,0,.03,0,.07,0,.1,0,.13-.04.26-.03.39-.03.34,0,.67,0,1.01,0,.27,0,.54,0,.81,0,.09,0,.18,0,.26-.07-.03-.02-.04-.04-.06-.06-.36-.2-.74-.35-1.14-.46-.32-.09-.64-.15-.97-.17-.03,0-.05,0-.08-.01-.02-.01-.07-.01-.06-.07.04-.02.08-.03.13-.05.28-.11.57-.22.84-.35.5-.23.96-.52,1.41-.83.39-.28.74-.59,1.09-.92.19-.18.36-.39.53-.59.19-.23.37-.46.55-.7.34-.48.64-.99.86-1.53.05-.12.12-.23.13-.39-.06,0-.11-.02-.15-.01-.08,0-.16.02-.23.04-.5.09-.99.22-1.47.4-.55.21-1.07.47-1.57.79-.28.18-.56.38-.82.59-.22.18-.43.37-.64.56-.32.31-.62.65-.9,1-.24.31-.47.62-.68.95-.29.44-.54.91-.76,1.39Z"/>
      <path class="cls-5" d="M39.45,7.06c.91.83,1.96,1.44,3.15,1.85-.05.07-.11.07-.16.08-.05,0-.09,0-.14,0-.41.06-.82.14-1.21.29-.23.08-.46.17-.67.29-.05.03-.12.05-.14.12.07.02.12.04.18.05.04,0,.08,0,.12,0,.76.02,1.52-.02,2.28.03.43.03.87,0,1.31,0,.04,0,.08,0,.12,0,.12-.03.16-.11.11-.22-.08-.19-.16-.39-.26-.58-.1-.21-.22-.4-.33-.61-.21-.39-.47-.75-.72-1.11-.24-.33-.5-.65-.78-.95-.3-.32-.62-.63-.96-.91-.34-.27-.69-.54-1.06-.76-.48-.28-.98-.53-1.5-.71-.5-.18-1.01-.3-1.53-.38-.07,0-.13-.02-.19.02.03.18.13.43.47,1.06.5.93,1.15,1.74,1.93,2.44Z"/>
      <path class="cls-5" d="M23.08,25.42c.33.31.64.63.95.95.17.17.34.34.51.5.02.02.05.05.09.02,0-.04.01-.08.01-.13,0-1.11,0-2.22,0-3.33,0-.1-.02-.18-.1-.24-.03-.02-.06-.06-.08-.08-.96-.96-1.92-1.92-2.87-2.87-.51-.51-1.02-1.02-1.53-1.53-.04-.04-.08-.11-.18-.12,0,.06,0,.1,0,.15,0,1.13,0,2.26,0,3.39,0,.12.04.2.12.28.34.32.67.66,1.01.98.71.67,1.37,1.38,2.08,2.04Z"/>
      <path class="cls-5" d="M55.14,22.89c-1.65-1.65-3.31-3.31-4.96-4.96-.38-.38-.77-.77-1.15-1.15-.05-.05-.09-.11-.18-.14-.18.21-.36.42-.54.63-.19.22-.37.44-.55.67-.02.03-.04.07-.06.1,0,.02.01.03.02.04.02.02.03.04.05.06,2.07,2.07,4.14,4.14,6.21,6.21,0,0,.01,0,.02,0,0,0,.01,0,.03,0,.02-.02.05-.04.08-.07.4-.4.79-.79,1.21-1.21-.07-.08-.13-.13-.18-.19Z"/>
      <path class="cls-5" d="M16.05,20.8c-.08.1-.16.19-.24.29-.3.33-.65.59-1.02.84-.37.25-.75.47-1.15.65-.37.17-.75.3-1.14.41-.26.07-.52.13-.79.16-.04,0-.09.01-.11.07.05.08.11.14.19.2.16.11.29.25.42.39.08.09.17.12.3.12,1.14,0,2.27,0,3.41,0,.05,0,.11,0,.16,0,.09,0,.18-.02.27-.02,1.04,0,2.08,0,3.11,0,.28,0,.57,0,.85,0,.05,0,.1,0,.18-.02-.14-.19-2.55-2.62-3.68-3.71-.03-.03-.07-.06-.11-.1-.04.04-.09.07-.12.11-.17.21-.34.42-.51.63Z"/>
      <path class="cls-5" d="M8.34,13.96c-2.09,0-4.19,0-6.28,0-.05,0-.11,0-.16,0-.03,0-.06.02-.1.04.04.07.08.12.11.18.21.28.45.53.69.79.23.24.46.49.72.7.19.16.36.35.55.52.23.2.46.41.69.62.26.24.53.48.8.7.24.2.48.41.72.62.23.2.46.39.69.59.02.02.05.02.1.03,0-.1,0-.18,0-.26-.02-.3.02-.6.07-.9.13-.68.36-1.32.65-1.94.22-.46.47-.91.77-1.34.07-.1.13-.2.2-.31-.09-.05-.16-.03-.23-.03Z"/>
      <path class="cls-5" d="M48.74,7.75c.07.42.17.84.3,1.25.2.64.46,1.26.8,1.85.39.68.86,1.3,1.4,1.86.17.17.35.32.52.48,0,0,.02,0,.05.01.03-.03.07-.06.11-.1.17-.17.34-.33.5-.5.23-.24.45-.48.7-.74-.02-.07-.03-.14-.06-.21-.04-.13-.09-.25-.13-.37-.13-.36-.27-.71-.44-1.06-.15-.32-.32-.62-.51-.92-.21-.34-.45-.66-.72-.96-.17-.19-.34-.37-.52-.54-.23-.21-.46-.41-.71-.6-.4-.3-.82-.56-1.26-.77-.04-.02-.08-.03-.13-.05,0,.04-.02.08-.02.11,0,.16,0,.33.02.49.03.26.06.52.1.78Z"/>
      <path class="cls-5" d="M24.78,29.42s-.03-.02-.04-.03c-.03,0-.07,0-.1,0-.79-.01-1.58.03-2.38-.03h-3.86c-.05,0-.11,0-.16,0-.02,0-.05.01-.09.03.04.04.06.08.08.1.26.23.51.45.77.68.11.1.22.2.34.3.26.23.52.45.77.68.05.05.1.08.18.08.04,0,.08,0,.12,0h4.28s.09,0,.14,0c.04,0,.07-.02.1-.03-.03-.1-.06-.19-.07-.28-.03-.27-.08-.55-.07-.82,0-.18,0-.36,0-.54,0-.04,0-.09-.01-.13Z"/>
      <path class="cls-5" d="M58.48,20.48c-.11-.06-.13-.06-.22.03-.36.34-.71.69-1.07,1.03-.11.11-.22.21-.32.32-.02.02-.03.04-.04.07.03.02.06.03.08.04.27.07.55.14.82.2.45.1.91.15,1.36.22.1.02.21.03.31.04.21.01.42.02.63.04.03,0,.05,0,.08.01.14.04.29.02.43.01.02-.03.03-.06.04-.09.06-.24.13-.48.18-.73.05-.22.08-.44.11-.66.04-.25.08-.51.08-.76,0-.04,0-.08.01-.12,0-.07.02-.13.02-.2,0-.43,0-.86,0-1.29,0-.04,0-.08,0-.12-.03-.1-.03-.21-.03-.31,0-.07-.01-.13-.05-.18-.02,0-.03,0-.04,0-.1.08-.2.17-.3.26-.35.33-.69.67-1.04,1-.15.15-.29.31-.46.43-.05.04-.09.09-.13.14.05.12.1.22.14.32.05.11.1.22.16.32.05.1.11.19.16.29.05.1.14.18.15.32-.11-.02-.19-.09-.26-.15-.26-.18-.53-.35-.81-.5ZM59.59,21.16h.01s-.01.01-.01.01h0Z"/>
      <path class="cls-5" d="M47.44,15.25c.23.03.47.07.71.08.53,0,1.06.03,1.58-.02.08,0,.14-.03.19-.09.14-.15.29-.29.43-.44.35-.36.7-.72,1.05-1.08.03-.03.04-.06.07-.1-.04-.02-.07-.04-.1-.04-.19-.04-.37-.09-.56-.12-.24-.04-.48-.09-.72-.11-.22-.02-.44-.06-.67-.06-.17,0-.34,0-.52,0-.35,0-.7,0-1.04.07-.19.04-.39.07-.58.12-.3.08-.59.17-.88.3-.36.16-.7.36-1.04.61.03.04.05.07.08.09.37.29.78.49,1.23.62.25.07.51.14.77.17Z"/>
      <path class="cls-5" d="M16.21,52.81s0-.06,0-.09c0-.88,0-1.77,0-2.65,0-.03-.01-.06-.02-.1-.04,0-.07-.01-.1-.01-.71,0-1.42,0-2.14,0-.01.05-.02.06-.02.08,0,.9,0,1.79,0,2.69,0,.03,0,.05.01.08.04,0,.08.02.12.02.68,0,1.36,0,2.04,0,.04,0,.07-.02.11-.02Z"/>
      <path class="cls-5" d="M13.99,39.33c.69,0,1.37,0,2.06,0,.03,0,.06-.01.09-.02,0-.04.01-.07.01-.11,0-.87,0-1.74,0-2.62,0-.04-.01-.08-.02-.12-.04,0-.07-.02-.1-.02-.68,0-1.36,0-2.04,0-.04,0-.07.02-.11.02-.02.15-.04,2.36-.02,2.74,0,.03.01.06.02.1.04,0,.07.01.1.01Z"/>
      <path class="cls-5" d="M52.83,53.07c.15.02,1.73.03,2.14.02.03,0,.06-.01.09-.01.05-.07.03-.14.03-.2,0-.39,0-.78,0-1.17,0-.44,0-.87,0-1.31,0-.06.02-.12-.05-.18-.7,0-1.41,0-2.12,0-.03,0-.06.01-.12.02v.99c0,.55,0,1.11,0,1.66,0,.06-.02.13.03.19Z"/>
      <path class="cls-5" d="M52.71,39.08s.07.01.11.01c.68,0,1.36,0,2.04,0,.04,0,.07-.02.12-.03v-1.53c0-.38,0-.77,0-1.15,0-.05.01-.11-.04-.15-.18-.02-2.06-.02-2.23,0,0,.04-.01.07-.01.1,0,.88,0,1.76,0,2.64,0,.03.01.06.02.1Z"/>
      <path class="cls-5" d="M29.62,7.56c-.42.08-.78.27-1.11.53-.06.05-.12.11-.17.17-.08.11-.17.22-.24.34-.07.11-.13.23-.17.35.04.07.11.09.17.12.39.16.8.22,1.21.25.03,0,.05,0,.08,0,.18-.06.38-.03.57-.06.27-.05.54-.11.81-.19.45-.13.87-.34,1.28-.56.25-.14.48-.29.73-.44.03-.02.07-.04.05-.09-.01,0-.02-.02-.03-.02-.35-.12-.71-.23-1.08-.31-.33-.07-.67-.12-1.01-.15-.36-.03-.72,0-1.08.08Z"/>
      <path class="cls-5" d="M36.04,8.26c.34.2.7.37,1.07.5.45.16.91.29,1.4.33.34.03.67.03,1.01-.02.27-.04.52-.13.77-.23.07-.03.13-.06.17-.13-.1-.27-.27-.5-.46-.71-.14-.15-.31-.26-.49-.36-.38-.19-.77-.29-1.2-.3-.14,0-.28,0-.42,0-.19-.01-.37.01-.55.04-.55.09-1.08.23-1.6.43-.07.03-.15.04-.22.12.08.05.13.09.2.13.11.06.22.12.33.19Z"/>
      <path class="cls-5" d="M61.54,57.25c-.22.02-.43.06-.64.09-.51.08-1.01.2-1.5.35-.05.02-.09.04-.17.07.14.16.25.29.38.42.23.24.48.47.71.72.19.21.39.41.59.61.03.03.07.06.11.09.06-.03.11-.06.16-.09.13-.08.25-.17.37-.26.28-.21.56-.42.8-.67.2-.2.4-.4.58-.62.17-.19.32-.4.47-.61.02-.02.02-.06.02-.09-.08-.07-.17-.06-.25-.06-.35,0-.7,0-1.05,0-.2,0-.39.02-.59.04Z"/>
      <path class="cls-5" d="M17.36,19.82c.28.27.58.54.87.81.23.21.46.43.69.65.02.02.04.04.06.06.06.05.12.1.2.13,0-.04.02-.06.02-.08.02-.45,0-3.29-.02-3.47-.05.04-.08.06-.11.08-.12.13-.25.23-.4.32-.36.23-.74.4-1.14.54-.27.09-.54.16-.82.23-.03,0-.07,0-.08.06.04.05.1.11.16.16.19.17.39.33.57.51Z"/>
      <path class="cls-5" d="M34.18,8.37c.38.02.74-.3.73-.72,0-.44-.3-.74-.73-.75-.43,0-.74.35-.74.72,0,.44.31.76.74.75Z"/>
      <path class="cls-5" d="M54.86,61.07h.04c.41,0,.82,0,1.23,0,.06,0,.12,0,.18,0,0-.03.01-.04.01-.04,0-.02-.02-.04-.03-.05-.59-.49-1.19-.97-1.79-1.45-.01-.01-.04,0-.05-.01,0,.01-.02.03-.02.04.02.16.05.32.06.49.02.27.07.53.1.8.02.22.1.25.28.25Z"/>
      <path class="cls-5" d="M56,52.87c-.24.21-.49.71-.51,1.03.4.46.97,1.04,1.13,1.15,0,0,.02-.02.02-.03-.04-.33-.08-.65-.16-.97-.1-.38-.23-.76-.43-1.1-.01-.03-.04-.05-.06-.08Z"/>
      <path class="cls-5" d="M16.25,54.73c-.21.21-.4.43-.59.65.01.04.02.07.03.1.14.42.24.85.3,1.28.02.17.05.34.07.51.02.16.04.32.06.49.01.14.02.29.03.43,0,.06.03.11.05.18.03-.03.05-.05.06-.07.01-.07.02-.14.02-.21,0-1.05,0-2.1,0-3.15,0-.05,0-.09,0-.14,0-.02-.02-.04-.03-.08Z"/>
      <path class="cls-5" d="M4.75,44.28c.02.3.21.52.54.54.33.02.59-.26.57-.54.01-.33-.23-.55-.53-.57-.3-.02-.61.28-.58.57Z"/>
      <path class="cls-5" d="M53.48,61.75c.3-.01.55-.2.56-.54.03-.32-.25-.58-.54-.57-.33,0-.55.23-.57.56-.02.27.29.58.56.56Z"/>
      <path class="cls-5" d="M8.13,23.47c-.33-.01-.56.25-.57.53-.01.32.24.58.55.58.36,0,.55-.26.57-.56.02-.31-.28-.58-.54-.55Z"/>
      <path class="cls-5" d="M64.08,32.63c-.35,0-.55.24-.56.56,0,.27.24.58.55.55.35,0,.56-.24.57-.53,0-.32-.23-.58-.55-.57Z"/>
      <path class="cls-5" d="M9.21,53.35c-.3-.01-.56.24-.56.54,0,.34.26.58.55.57.31,0,.57-.23.55-.54.02-.33-.22-.56-.54-.57Z"/>
      <path class="cls-5" d="M45.18,10.59c.31,0,.55-.26.55-.56,0-.31-.24-.55-.54-.55-.33,0-.57.23-.57.55,0,.33.23.57.56.56Z"/>
      <path class="cls-5" d="M14.52,15.27c-.31,0-.56.25-.55.56,0,.34.23.54.57.56.26.01.57-.26.54-.56,0-.36-.26-.56-.56-.56Z"/>
      <path class="cls-5" d="M4.92,34.46c.16,0,.3-.06.41-.17.11-.11.16-.24.14-.38,0-.34-.23-.56-.54-.57-.29-.01-.56.27-.55.55.01.33.24.55.54.57Z"/>
      <path class="cls-5" d="M60.08,23.4c-.03.33.29.58.55.57.34-.01.56-.26.56-.57,0-.31-.24-.56-.56-.55-.3,0-.55.2-.55.55Z"/>
      <path class="cls-5" d="M22.81,10.33c-.02.26.22.55.55.55.31,0,.54-.23.54-.55.05-.29-.25-.57-.53-.56-.33,0-.53.22-.56.56Z"/>
      <path class="cls-5" d="M15.6,61.66c0,.32.29.56.56.55.31,0,.56-.23.55-.56.02-.29-.22-.54-.55-.55-.28-.01-.57.25-.56.56Z"/>
      <path class="cls-5" d="M60.83,53.29c.03-.27-.28-.58-.55-.56-.33.02-.55.22-.55.53-.04.37.26.59.53.59.35,0,.55-.21.58-.55Z"/>
      <path class="cls-5" d="M25.9,66.5c0-.34-.25-.57-.56-.56-.32.01-.55.22-.55.55,0,.31.21.55.55.55.32.03.57-.25.57-.55Z"/>
      <path class="cls-5" d="M44.21,65.79c-.19.07-.31.26-.31.5,0,.12.01.26.1.36.2.23.52.3.81.06.24-.19.24-.61,0-.82-.19-.16-.39-.18-.61-.1Z"/>
      <path class="cls-5" d="M63.94,43.05c-.28-.05-.57.24-.56.53,0,.32.22.55.54.55.34,0,.58-.22.57-.54,0-.25-.2-.58-.56-.54Z"/>
      <path class="cls-5" d="M14.33,61.46c-.09,0-.18.01-.27.03-.14.02-.29.03-.43,0-.13-.02-.26-.02-.39-.03-.11,0-.23,0-.33-.01-.14-.03-.27-.02-.41-.02.03.05.09.05.14.06.07,0,.15,0,.22,0,.12.03.24.02.35.03.11,0,.22,0,.34,0,.1,0,.21.02.31.02.12,0,.24-.03.35-.03.26,0,.51,0,.77-.04.05,0,.09,0,.12-.05-.08,0-.16-.02-.23,0-.18.04-.35.03-.53.03Z"/>
      <path class="cls-5" d="M7,58.02c.11-.02.22-.03.33-.03.2,0,.41,0,.61,0,.08,0,.16.02.23.03.14.02.29.03.43,0-.02-.01-.04-.04-.07-.04-.2-.01-.39-.03-.59-.03-.41,0-.81,0-1.22.03-.04,0-.08,0-.1.05.12.04.25.03.37,0Z"/>
      <path class="cls-5" d="M15.36,59.79s.01.05.02.07c.01-.03.04-.06.04-.08,0-.3,0-.6,0-.9,0-.03-.03-.06-.04-.08,0,.02-.02.05-.02.07,0,.31,0,.61,0,.92Z"/>
      <path class="cls-5" d="M11.1,58.58s.03,0,.05-.01c-.01-.01-.03-.03-.04-.04-.18-.06-.36-.13-.54-.18-.14-.04-.27-.09-.42-.08.01.01.02.04.04.04.31.07.61.16.91.28Z"/>
      <path class="cls-5" d="M15.28,57.78s.03.05.05.08c0-.24-.05-.48-.08-.72,0-.02-.03-.04-.05-.06,0,.05,0,.1,0,.16.02.18.04.36.07.54Z"/>
      <path class="cls-5" d="M14.57,54.96s.03.03.04.04c0-.02,0-.05,0-.07-.09-.18-.17-.35-.26-.53-.01-.02-.04-.03-.06-.05,0,.02,0,.04,0,.06.09.19.18.37.28.56Z"/>
      <path class="cls-5" d="M18.8,65.41s.04-.03.06-.05c-.2-.02-.4.02-.6.04-.02,0-.04.03-.06.04.03,0,.07.01.1.01.17-.01.34-.03.51-.04Z"/>
      <path class="cls-5" d="M20.83,65.45c.05.01.12,0,.18,0-.02-.01-.04-.04-.06-.04-.19,0-.37-.06-.56-.04.02.02.05.05.07.05.12,0,.25.01.37.04Z"/>
      <path class="cls-5" d="M13.51,53.38c.06.04.11.08.16.11,0-.09-.07-.13-.14-.16-.02,0-.07,0-.09.02-.06.1-.14.21-.13.34.05-.02.05-.07.07-.11.03-.07.05-.16.13-.2Z"/>
      <path class="cls-5" d="M13.01,56.42s-.02-.03-.04-.04c-.04.19.02.36.04.54,0,0,.02.02.03.02,0-.02.01-.04,0-.06-.01-.16-.03-.31-.04-.47Z"/>
      <path class="cls-5" d="M12.1,58.94c-.14-.07-.28-.13-.43-.19-.02,0-.04,0-.06,0,.16.12.34.19.53.24-.02-.02-.03-.04-.05-.05Z"/>
      <path class="cls-5" d="M14.93,55.97s.02.11.07.13c.02-.08-.02-.15-.04-.22-.03-.11-.05-.24-.13-.33,0,.02-.02.04-.01.05.04.12.08.25.12.37Z"/>
      <path class="cls-5" d="M13.05,54.86c0-.05,0-.1,0-.16-.01,0-.03.01-.03.02-.03.17-.08.33-.05.5.04-.02.05-.06.05-.1,0-.09.02-.18.03-.27Z"/>
      <path class="cls-5" d="M15.24,61.42s.05-.02.05-.04c.04-.15.05-.29.03-.45-.01.01-.04.03-.04.04-.02.15-.03.3-.05.44Z"/>
      <path class="cls-5" d="M13.6,59.1c.05.14.11.28.16.42,0,.02.03.02.04.04-.04-.18-.1-.34-.2-.49,0,.01-.01.03,0,.04Z"/>
      <path class="cls-5" d="M13.28,53.79s-.03.01-.03.02c-.07.15-.12.31-.13.48.01,0,.03-.01.03-.02.06-.15.11-.31.13-.48Z"/>
      <path class="cls-5" d="M10.15,60.91s.02.03.04.04c.13.04.26.08.38.12.02,0,.05,0,.07,0-.15-.09-.31-.13-.48-.16,0,0-.01,0-.02,0Z"/>
      <path class="cls-5" d="M9.61,58.16s-.04-.04-.06-.05c-.08-.02-.15-.03-.23-.04-.05,0-.1,0-.15.01,0,0,.02.03.03.03.14,0,.27.07.42.05Z"/>
      <path class="cls-5" d="M14.16,60.28c-.02-.08-.04-.17-.12-.22-.02.06-.06.08-.12.08.04.05.08.1.12.14.03.03.07.04.11,0Z"/>
      <path class="cls-5" d="M13.17,57.64c-.01.15.01.3.11.42-.03-.13-.05-.26-.08-.4,0,0-.02-.02-.03-.02Z"/>
      <path class="cls-5" d="M11.31,61.24c.1.06.18.07.33.06-.1-.06-.2-.08-.31-.08,0,0-.01,0-.02.01Z"/>
      <path class="cls-5" d="M12.07,61.38c-.08-.05-.17-.07-.28-.05.08.08.18.06.28.05Z"/>
      <path class="cls-5" d="M23,65.96s0-.03,0-.04c-.02-.04-.06-.07-.11-.07-.04,0-.09.02-.13.03.05.07.13.07.21.09,0,0,.03,0,.03-.02Z"/>
      <path class="cls-5" d="M13.47,58.7c0-.12-.03-.22-.1-.31,0,.11.03.22.1.31Z"/>
      <path class="cls-5" d="M11.07,61.19c-.08-.07-.18-.08-.29-.08.1.06.15.08.29.08Z"/>
      <path class="cls-5" d="M15.1,56.47c0-.16-.02-.21-.08-.3-.02.1.02.19.05.28,0,0,.02.01.03.02Z"/>
      <path class="cls-5" d="M7.5,59.4c.05.05.09.11.14.15.02.01.05.01.07.02-.05-.05-.09-.11-.14-.16-.02-.01-.05-.01-.07-.02Z"/>
      <path class="cls-5" d="M29.48,71.34c-.14,0-.19.02-.28.07.12,0,.2-.01.28-.07Z"/>
      <path class="cls-5" d="M9.14,60.48c-.07-.08-.15-.12-.25-.13.07.08.12.11.25.13Z"/>
      <path class="cls-5" d="M13.11,54.36c-.06.09-.07.13-.06.24.06-.07.1-.14.06-.24Z"/>
      <path class="cls-5" d="M6.37,58.07s.03-.03.04-.04c-.03,0-.06,0-.09,0-.03,0-.06.02-.06.06,0,.04.03.06.06.06,0-.04,0-.08.05-.09Z"/>
      <path class="cls-5" d="M6.37,58.23c0,.1.07.13.14.17,0-.09-.07-.13-.14-.17Z"/>
      <path class="cls-5" d="M13.56,58.97s0-.08,0-.11-.03-.07-.06-.1c-.01.08,0,.15.07.21Z"/>
      <path class="cls-5" d="M14.69,55.18c0,.08,0,.16.08.22,0-.08,0-.16-.08-.22Z"/>
      <path class="cls-5" d="M22.17,65.69c.06.07.14.09.22.07-.06-.06-.14-.08-.22-.07Z"/>
      <path class="cls-5" d="M30.08,71.15c-.09,0-.16,0-.22.08.08,0,.16-.01.22-.08Z"/>
      <path class="cls-5" d="M12.57,59.21c.04.07.1.09.17.1-.03-.07-.1-.09-.17-.1Z"/>
      <path class="cls-5" d="M8.49,60.11c.03.07.1.09.17.1-.03-.08-.1-.1-.17-.1Z"/>
      <path class="cls-5" d="M9.66,60.71c-.05-.06-.11-.08-.18-.08.05.06.1.1.18.08Z"/>
      <path class="cls-5" d="M28.24,71.61c.06.02.12.03.17-.02-.06-.02-.12-.04-.17.02Z"/>
      <path class="cls-5" d="M13.08,57.2c-.02.06-.03.12.03.17.03-.06.03-.12-.03-.17Z"/>
      <path class="cls-5" d="M32.2,70.17c.07-.01.13-.03.17-.1-.07,0-.14.03-.17.1Z"/>
      <path class="cls-5" d="M28.63,71.53c.05.02.1.03.15-.03-.05-.02-.1-.03-.15.03Z"/>
      <path class="cls-5" d="M15.34,60.54s.05-.05.02-.09c-.04.02-.06.05-.02.09Z"/>
      <path class="cls-5" d="M11.42,58.67s.06.05.1.04c-.02-.05-.06-.05-.1-.04Z"/>
      <path class="cls-5" d="M12.21,61.39s.05.06.09.03c-.02-.03-.05-.05-.09-.03Z"/>
      <path class="cls-5" d="M15.14,56.62s0-.06-.03-.09c-.03.05-.03.06.03.09Z"/>
      <path class="cls-5" d="M15.16,56.78s0-.06-.02-.08c-.04.04-.02.06.02.08Z"/>
      <path class="cls-5" d="M8.99,58.06s-.06-.06-.11-.03c.03.04.06.06.11.03Z"/>
      <path class="cls-5" d="M9.68,58.16s.05.05.09.03c-.02-.04-.05-.06-.09-.03Z"/>
      <path class="cls-5" d="M13.29,58.12s0,.07.03.09c.03-.04,0-.07-.03-.09Z"/>
      <path class="cls-5" d="M15.37,58.25s0-.06-.02-.09c-.04.04-.01.07.02.09Z"/>
      <path class="cls-5" d="M17.47,65.58s-.06-.02-.09,0c.03.04.06.03.09,0Z"/>
      <path class="cls-5" d="M17.31,65.61s-.07-.02-.09.02c.04.04.07.02.09-.02Z"/>
      <path class="cls-5" d="M21.85,65.61s.06.05.11.03c-.03-.04-.06-.06-.11-.03Z"/>
      <path class="cls-5" d="M10.08,58.25s-.05-.04-.09-.02c.02.04.05.06.09.02Z"/>
      <path class="cls-5" d="M16.2,65.92s-.08,0-.1.04c.05.02.08.01.1-.04Z"/>
      <path class="cls-5" d="M30.53,70.99s.08,0,.1-.04c-.05-.02-.08,0-.1.04Z"/>
      <path class="cls-5" d="M29.13,71.43s-.07-.01-.09.03c.04.03.07,0,.09-.03Z"/>
      <path class="cls-5" d="M28.97,71.46s-.07,0-.09.03c.05.04.07,0,.09-.03Z"/>
      <path class="cls-5" d="M11.14,61.2s.06.06.1.03c-.03-.04-.06-.06-.1-.03Z"/>
      <path class="cls-5" d="M37.49,50.51c0,.16,0,0-.03.77l-.04.55s0,.09-.01.14c-.13.03-.26.01-.38.02-.13,0-.26,0-.39,0-.12,0-.25.02-.37-.02l-.07-.06h0c0,.06.02.09.04.11,0,0,0,0,0,0,.03.02.06.02.1.02.2,0,.41,0,.61,0,.03,0,.07,0,.1,0,.1,0,.2,0,.3,0,.05,0,.07-.02.09-.05,0-.02.02-.03.02-.06,0-.01,0-.03,0-.04,0-.02,0-.04,0-.06h0c0-.21-.02-.42.04-.63,0-.02,0-.04,0-.06,0-.18,0-.36,0-.53,0-.02,0-.04-.01-.07,0-.02,0-.03-.01-.05h0Z"/>
      <path class="cls-5" d="M37.49,50.51h0c0,.06.04-.24,0,0Z"/>
      <path class="cls-5" d="M36.24,52.03s0,0,0,0c0,0,0,0,0,0Z"/>
      <path class="cls-5" d="M37.51,51.15h0c0-.18,0-.36,0-.53,0-.02,0-.04-.01-.07,0,.02.01.04.01.07,0,.18,0,.36,0,.53Z"/>
      <path class="cls-5" d="M37.44,52s.02-.03.03-.06c0-.01,0-.03,0-.04,0,.01,0,.03,0,.04,0,.02-.02.04-.02.06Z"/>
      <path class="cls-5" d="M37.47,51.84c0-.21.07-.43.04-.63-.06.21-.03.42-.04.63Z"/>
      <path class="cls-5" d="M36.34,52.05c.2,0,.41,0,.61,0,.03,0,.07,0,.1,0-.03,0-.07,0-.1,0-.2,0-.41,0-.61,0Z"/>
      <path class="cls-5" d="M40.86,52.05c.15,0,.29,0,.44,0,.01,0,.02,0,.03,0-.01,0-.02,0-.03,0-.15,0-.29,0-.44,0Z"/>
      <path class="cls-5" d="M37.64,48.16s0,.06.01.08c.03.1.01.21.08.3,0,.02.01.05.02.07h0s-.08-.47-.08-.67c-.03-.21-.07-.13-.07-.13l-.06,1.12s.03-.03.04-.04c.01-.03.02-.05.02-.09,0,0,0,0,0,0,0-.06,0-.12,0-.19,0-.12,0-.25,0-.37,0-.03-.01-.06.04-.08Z"/>
      <path class="cls-5" d="M37.6,48.8s0,.06-.02.09c.01-.03.02-.05.02-.09Z"/>
      <path class="cls-5" d="M37.73,48.54c-.07-.09-.05-.2-.08-.3,0-.02,0-.05-.01-.08-.05.02-.04.06-.04.08,0,.12,0,.25,0,.37,0-.12,0-.25,0-.37,0-.03,0-.03.04-.05,0,.03-.01.1,0,.12.03.1.05.2.12.29h0s-.01-.05-.02-.07Z"/>
      <path class="cls-5" d="M38.85,49.58l.03-.26v-.06s-.03,0-.03,0c-.02.02,0,.02-.01.05-.02.03.02-.26-.03-.23-.02-.1-.05.14-.07.04,0-.03-.03-.05-.05-.08,0-.05-.01-.1-.02-.15h0l-.02-.09h0s.1.62.12.81c.05.03.08.01.09-.02Z"/>
      <path class="cls-5" d="M38.84,49.3s-.05-.08-.04.11c-.02-.1-.04-.2-.06-.3,0-.02-.04-.14-.06-.23,0,0,0,0,0,0,0,.05.01.1.02.15.02.03.04.05.05.08.02.1.04.2.06.3.05-.03.03-.08.04-.11"/>
      <path class="cls-5" d="M38.54,52.05c.18,0,.36,0,.53,0,.05,0,.09,0,.14,0,0,0,0,0,0,0,.03,0,.06-.03.06-.06h-.85c.01.07.06.07.11.07Z"/>
      <path class="cls-5" d="M39.27,51.98h0s-.03.06-.06.06c.03,0,.06-.03.06-.06Z"/>
      <path class="cls-5" d="M39.75,49.4c.02-.13.03-.26.05-.39.01-.01.04-.02.04-.04.02-.13.04-.26.05-.4,0-.03-.01-.06-.02-.09,0-.01,0-.02-.01-.03l-.16.98s.07-.02.05-.04Z"/>
      <path class="cls-5" d="M39.87,48.49s.03.06.02.09c-.01.13-.03.27-.05.4,0,.01-.03.02-.04.04-.02.13-.03.26-.05.39.02.02-.01.03-.05.04h0s.03,0,.04,0v-.04s.02.02.02.03c.07-.02.13-.03.13-.03.02-.13-.01-.69,0-.82,0-.02-.01-.11-.02-.19v.07s0,.02,0,.03Z"/>
      <path class="cls-5" d="M39.68,49.78c-.01.12-.08.38-.08.38.01,0,.09-.02.09-.03.04-.12.02-.22-.01-.35,0,0,0,0,0,0Z"/>
      <path class="cls-5" d="M39.49,50.89l-.07.38c.42-.18.07-.38.07-.38Z"/>
      <path class="cls-5" d="M38.07,50.35s-.02.04-.02.05c.02.09.07.19.09.28h0l-.07-.33Z"/>
      <path class="cls-5" d="M38.05,50.4c.02.09.04.17.06.26,0,0,.02.01.03.02-.02-.08-.07-.19-.09-.28h0Z"/>
      <path class="cls-5" d="M37.93,49.69l-.07-.34c-.01.14,0,.23.07.34Z"/>
      <path class="cls-5" d="M37.86,49.34c-.01.14,0,.23.07.34h0c-.07-.12-.08-.2-.07-.34h0Z"/>
      <path class="cls-5" d="M40.03,47.86c0-.05,0-.09-.04-.08-.04,0-.04.03-.06.14,0,.05,0-.07-.07.53l.07-.45h.05s.05.22.06.22c0-.03-.01-.33-.02-.36Z"/>
      <path class="cls-5" d="M39.93,48h.05s-.04,0-.05,0h0Z"/>
      <path class="cls-5" d="M37.76,48.6h0s-.01.03-.02.05c0,.02,0,.05,0,.07,0,.02.01.03.03.05l-.02-.17h0Z"/>
      <path class="cls-5" d="M37.76,48.6s-.01.03-.02.05c0-.01,0-.03.02-.05h0Z"/>
      <path class="cls-5" d="M37.77,48.77h0s-.02-.03-.03-.05c0,.02.01.03.03.05Z"/>
      <path class="cls-5" d="M39.27,51.98s.06-.05.07-.08c0-.03,0-.07-.02-.1l-.05.18Z"/>
      <path class="cls-5" d="M39.34,51.9s0-.07-.02-.1h0s.02.07.02.1Z"/>
      <path class="cls-5" d="M39.52,50.67h0s0,.01,0,0Z"/>
      <path class="cls-5" d="M39.54,50.55s-.02.1-.02.13c.06-.05.06-.06.02-.13Z"/>
      <path class="cls-5" d="M38.3,51.53s-.02.03-.01.04c0,.02.02.03.05.06l-.02-.13s0,.02-.01.03Z"/>
      <path class="cls-5" d="M38.28,51.57s0-.03.01-.04c0,.01-.02.03-.01.04Z"/>
      <path class="cls-5" d="M38.65,48.8s.02.04.03.08c.03-.04.02-.05-.03-.08t0,0h0Z"/>
      <path class="cls-5" d="M38.68,48.88s0,0,0,0c.06-.04.02-.05-.03-.08.05.03.05.04.03.08Z"/>
      <path class="cls-5" d="M38.68,48.88s-.02-.07-.03-.08l.02.09h0s0,0,0,0Z"/>
      <polygon class="cls-5" points="38.67 48.88 38.67 48.88 38.68 48.88 38.68 48.88 38.67 48.88"/>
      <path class="cls-5" d="M39.73,49.49s.05-.02.03-.05c0,0-.01,0-.02,0v.05Z"/>
      <path class="cls-5" d="M39.74,49.44s.01,0,.02,0c0-.01,0-.02-.01-.03v.04Z"/>
      <path class="cls-5" d="M29.03,41.24s0,.08,0,.12c0,.07.03.11.11.11.21.01.42-.02.6-.15.03-.02.06-.05.08-.08.22-.3.24-.63.13-.98-.04-.14-.14-.25-.27-.32-.2-.1-.41-.12-.62-.09-.05.07-.03.14-.03.2,0,.4,0,.79,0,1.19Z"/>
      <path class="cls-5" d="M26.73,50.08c.22,0,.45,0,.67,0,.03,0,.07,0,.09-.03.03-.04-.11-.55-.16-.82-.05-.26-.11-.53-.15-.79-.05-.27-.06-.54-.12-.81-.01,0-.03,0-.04,0-.03.15-.05.31-.08.46-.03.18-.04.37-.07.55-.07.43-.14.85-.22,1.28,0,.05-.02.1.02.15.02,0,.04.01.05.01Z"/>
      <path class="cls-5" d="M47.34,50.06c-.01-.1-.37-2.31-.39-2.39,0,.04,0,.07-.01.11-.03,0-.05,0-.08,0-.04.3-.3,1.98-.32,2.16.02.04.03.08.05.12.15.03.57.04.76,0Z"/>
      <path class="cls-5" d="M46.58,50.06s-.03-.08-.05-.12c0,0-.04.12,0,.18.11.02.66.04.77.02.02,0,.04-.02.05-.03,0,0,0-.02,0-.04-.19.03-.61.02-.76,0Z"/>
      <path class="cls-5" d="M46.91,47.64s-.04.02-.04.03c-.01.04-.01.07-.02.11.03,0,.07-.11.1-.11,0-.01-.02-.03-.04-.03Z"/>
      <path class="cls-5" d="M46.95,47.67s-.07.11-.1.11c.03,0,.05,0,.08,0,0-.04.01-.07.01-.11Z"/>
      <polygon class="cls-4" points="39.32 51.8 39.32 51.79 39.32 51.8 39.32 51.8"/>
    </g>
  </g>
</svg>